<?xml version="1.0" standalone="no"?>
<!DOCTYPE svg PUBLIC "-//W3C//DTD SVG 20010904//EN"
 "http://www.w3.org/TR/2001/REC-SVG-20010904/DTD/svg10.dtd">
<svg version="1.0" xmlns="http://www.w3.org/2000/svg"
 width="944.000000pt" height="944.000000pt" viewBox="0 0 944.000000 944.000000"
 preserveAspectRatio="xMidYMid meet">
<metadata>
Created by potrace 1.11, written by Peter Selinger 2001-2013
</metadata>
<g transform="translate(0.000000,944.000000) scale(0.100000,-0.100000)"
fill="#000000" stroke="none">
<path d="M16 9003 c9 -21 22 -53 28 -70 6 -18 14 -33 18 -33 5 0 8 -8 8 -18 0
-10 4 -22 8 -27 7 -9 65 -140 68 -155 0 -3 9 -23 19 -45 10 -22 19 -42 19 -45
1 -3 8 -21 17 -40 9 -19 29 -64 44 -100 15 -36 36 -83 46 -105 10 -22 46 -105
80 -185 34 -80 77 -181 96 -225 19 -44 43 -102 54 -130 11 -27 30 -70 41 -95
12 -25 27 -58 35 -75 7 -16 55 -129 107 -250 l93 -219 2472 -1 c1637 0 2475 3
2480 10 9 11 192 434 195 450 1 6 15 37 30 70 16 33 29 66 29 73 0 6 4 12 9
12 4 0 8 6 8 13 0 8 24 68 54 135 30 66 51 123 48 126 -3 3 0 6 6 6 7 0 11 3
10 8 -1 4 5 23 14 42 14 33 57 134 81 190 6 14 10 28 9 33 -1 4 3 7 8 7 6 0
10 6 10 13 0 7 36 96 80 197 44 101 80 190 80 197 0 7 4 13 10 13 5 0 9 3 8 8
-2 9 5 26 48 120 18 39 30 72 27 72 -3 0 -1 6 4 13 6 6 13 20 16 30 6 16 -154
17 -3263 17 l-3270 0 16 -37z"/>
<path d="M7251 8893 c-81 -190 -76 -178 -105 -246 -14 -32 -26 -60 -26 -62 0
-3 -9 -24 -19 -48 -26 -56 -53 -120 -57 -132 -1 -5 -21 -52 -44 -103 -22 -51
-41 -99 -43 -105 -1 -7 -5 -14 -8 -17 -3 -3 -23 -48 -43 -100 -21 -52 -43
-104 -49 -115 -6 -11 -12 -22 -12 -25 -3 -18 -30 -80 -35 -80 -4 0 -7 -6 -7
-12 0 -7 -32 -88 -72 -179 -39 -91 -71 -171 -71 -177 0 -7 -4 -12 -8 -12 -5 0
-9 -6 -9 -12 0 -7 -10 -35 -23 -63 -27 -60 -21 -47 -160 -375 -62 -146 -121
-285 -132 -310 -25 -55 -40 -92 -44 -105 -2 -10 -73 -175 -99 -232 -8 -17 -15
-34 -15 -38 0 -3 -11 -30 -24 -58 -57 -123 -76 -168 -76 -180 0 -7 -4 -17 -9
-23 -4 -5 -23 -45 -41 -89 -17 -44 -38 -93 -45 -110 -77 -175 -95 -219 -95
-231 0 -8 -4 -14 -10 -14 -5 0 -10 -6 -10 -13 0 -12 -70 -183 -121 -294 -10
-24 -19 -45 -19 -47 0 -3 -13 -34 -30 -69 -16 -36 -30 -68 -30 -71 0 -4 -9
-25 -19 -49 -11 -23 -52 -118 -91 -212 -40 -93 -78 -183 -85 -200 -66 -150
-145 -342 -145 -352 0 -7 -5 -13 -12 -13 -6 0 -9 -3 -6 -6 5 -4 -21 -68 -98
-241 -8 -17 -14 -34 -14 -37 0 -3 -11 -29 -24 -58 -42 -90 -106 -246 -106
-257 0 -6 -4 -11 -10 -11 -5 0 -10 -6 -10 -14 0 -13 -59 -158 -113 -276 -26
-58 -77 -182 -81 -195 -1 -5 -15 -36 -29 -69 -15 -32 -27 -60 -27 -61 0 -2
-10 -25 -22 -52 -12 -26 -22 -50 -23 -53 -4 -12 -20 -50 -47 -110 -16 -36 -29
-66 -29 -67 1 -2 -10 -28 -24 -59 -14 -31 -25 -60 -25 -64 0 -5 -9 -25 -20
-47 -19 -35 -108 -245 -152 -357 -10 -27 -27 -65 -38 -86 -11 -21 -16 -40 -13
-44 4 -3 1 -6 -5 -6 -7 0 -12 -7 -12 -16 0 -9 -6 -28 -14 -42 -17 -34 -9 -14
-174 -407 -165 -393 -156 -368 -154 -377 1 -5 -2 -8 -7 -8 -5 0 -12 -11 -15
-25 -4 -14 -20 -55 -36 -91 -17 -35 -30 -66 -30 -68 0 -2 -10 -25 -22 -52 -12
-27 -23 -53 -24 -59 -2 -9 -22 -56 -75 -172 -10 -24 -19 -45 -19 -48 0 -2 -12
-30 -27 -62 -14 -32 -26 -64 -26 -70 0 -7 -4 -13 -9 -13 -4 0 -8 -7 -8 -15 0
-8 -4 -23 -10 -33 -12 -23 -60 -131 -60 -137 0 -3 453 -4 1007 -3 l1008 3 10
30 c5 17 14 33 18 36 5 3 7 8 6 10 -3 4 103 258 152 366 10 24 19 45 19 48 0
2 12 30 26 62 46 103 51 117 94 218 23 55 49 116 57 135 9 19 16 36 15 38 -1
1 9 25 23 52 14 28 23 50 21 50 -2 0 6 21 19 47 13 25 22 50 19 55 -3 4 0 8 5
8 6 0 11 5 11 10 0 6 9 29 19 53 11 23 38 87 61 142 23 55 51 119 61 142 10
23 19 44 19 47 0 2 16 39 35 80 19 42 35 81 35 86 0 6 5 18 10 28 24 41 127
291 122 296 -3 4 0 6 6 6 7 0 12 7 12 15 0 9 11 37 25 64 13 27 21 51 18 55
-4 3 -1 6 5 6 7 0 11 3 10 7 -1 5 4 19 10 33 77 179 119 282 120 293 1 4 10
24 20 45 30 57 115 260 113 268 -2 4 1 10 6 13 4 3 19 33 32 66 13 33 32 78
42 100 10 22 32 74 49 115 17 41 39 91 48 110 9 19 17 40 18 46 1 5 13 35 27
65 13 30 43 99 66 154 23 55 48 114 56 130 8 17 16 37 17 45 2 8 9 21 16 28 6
7 12 19 12 27 0 7 18 52 40 99 21 48 39 89 40 91 0 3 7 23 16 45 9 21 15 42
14 46 -1 4 2 10 7 13 5 3 17 24 25 46 9 22 24 58 34 80 10 22 18 42 19 45 4
12 22 56 71 165 9 22 18 42 19 45 7 28 30 80 35 80 4 0 7 6 7 13 1 6 26 71 57
144 31 73 56 137 56 143 0 5 4 10 9 10 5 0 12 12 16 27 3 15 17 52 31 81 13
29 24 55 24 57 0 2 12 30 27 62 14 32 26 64 26 71 0 6 4 12 9 12 4 0 8 7 8 15
0 8 4 23 10 33 5 9 18 37 28 62 11 25 29 67 41 94 11 27 21 55 21 62 0 8 5 14
10 14 6 0 10 7 10 15 0 8 9 34 19 57 51 112 71 157 71 161 0 3 10 26 22 53 12
27 23 54 24 59 2 8 61 144 103 240 41 92 51 115 51 120 0 4 18 46 60 140 5 11
28 65 51 120 41 101 47 114 93 218 14 32 26 60 26 62 0 2 12 30 26 62 15 32
28 63 29 68 2 6 11 28 20 50 10 22 19 42 20 45 1 3 9 22 18 44 9 21 17 40 17
41 0 1 10 24 22 51 12 27 23 51 23 54 1 3 10 23 19 45 62 140 78 180 80 191 1
6 8 20 16 30 8 9 14 18 12 18 -2 1 1 14 7 29 6 16 11 33 11 38 0 5 5 9 12 9 6
0 9 3 5 6 -3 3 10 39 28 80 19 41 31 74 28 74 -3 0 -1 6 5 13 5 6 27 53 47
102 21 50 46 108 55 130 10 22 37 85 61 140 23 55 49 116 57 135 9 19 16 37
17 40 1 3 9 22 18 44 9 21 17 40 17 42 0 2 12 29 26 61 14 32 29 67 34 78 40
90 70 165 70 174 0 6 5 11 12 11 6 0 8 3 5 6 -3 4 -2 15 4 25 9 19 -17 19
-999 19 l-1009 0 -62 -147z"/>
<path d="M1157 6370 c25 -58 57 -137 73 -175 32 -80 103 -249 131 -312 11 -23
19 -45 19 -48 0 -3 9 -25 19 -49 11 -23 29 -65 40 -92 10 -27 27 -67 37 -89
10 -22 18 -42 19 -45 2 -7 20 -49 56 -132 17 -40 32 -77 33 -83 2 -5 15 -36
29 -69 15 -32 27 -64 27 -70 0 -7 4 -16 9 -21 4 -6 23 -46 41 -90 18 -44 41
-99 51 -122 11 -23 19 -44 19 -46 0 -3 10 -26 22 -53 12 -27 22 -51 23 -54 0
-5 10 -29 58 -143 13 -30 28 -49 41 -52 12 -2 639 -3 1395 -2 l1374 2 44 105
c24 58 50 119 58 137 8 17 15 34 15 37 0 6 13 37 66 154 13 29 24 55 24 58 0
3 9 24 19 47 32 72 133 311 135 322 1 6 4 15 8 20 3 6 42 98 87 205 95 226
147 349 171 405 10 22 34 81 54 130 20 50 46 107 57 128 11 20 18 37 14 37 -3
0 1 13 10 30 8 16 15 30 15 32 0 2 -976 3 -2169 3 l-2168 0 44 -105z"/>
<path d="M2274 3912 l-81 -3 80 -187 c43 -103 85 -200 92 -217 58 -136 91
-217 95 -230 1 -5 11 -26 21 -45 11 -19 19 -38 19 -42 0 -4 11 -31 24 -60 14
-29 68 -156 121 -283 53 -126 103 -243 112 -260 8 -16 16 -37 18 -45 2 -8 15
-42 30 -75 39 -88 49 -111 90 -210 20 -49 48 -115 62 -145 14 -30 26 -59 27
-65 2 -5 10 -28 20 -50 35 -79 39 -90 38 -97 -1 -5 3 -8 9 -8 5 0 8 -3 6 -8
-3 -4 4 -25 15 -47 11 -22 26 -56 33 -75 7 -19 21 -53 31 -75 10 -22 18 -42
19 -45 1 -3 9 -21 17 -40 23 -54 31 -74 34 -89 1 -8 6 -17 11 -20 4 -3 9 -10
10 -16 1 -5 13 -37 27 -69 l24 -59 17 39 c9 21 24 57 33 79 9 22 22 51 28 64
7 14 11 28 8 33 -3 4 -1 8 4 8 5 0 17 25 27 55 11 30 23 55 27 55 4 0 7 3 6 8
-1 8 8 35 27 77 8 17 39 91 71 165 31 74 59 140 62 145 4 6 7 15 8 21 1 5 13
36 28 67 14 32 26 59 26 61 0 2 8 21 17 42 9 22 16 42 15 47 -1 4 2 7 8 7 5 0
10 6 10 14 0 7 18 56 41 107 49 113 56 132 57 142 1 4 8 20 16 35 8 15 52 115
97 222 45 107 87 209 94 225 7 17 24 56 39 88 14 32 26 60 26 63 0 5 24 60 55
129 7 17 30 71 51 120 20 50 44 106 52 125 9 19 16 37 17 40 0 3 11 27 23 54
12 27 22 54 22 60 0 7 4 16 8 21 13 15 63 137 58 142 -4 5 -1956 10 -2082 5z"/>
</g>
</svg>
