<?xml version="1.0" encoding="UTF-8"?>
<svg width="26px" height="26px" viewBox="0 0 26 26" version="1.1" xmlns="http://www.w3.org/2000/svg" xmlns:xlink="http://www.w3.org/1999/xlink">
    <!-- Generator: Sketch 45.1 (43504) - http://www.bohemiancoding.com/sketch -->
    <title>next copy 3</title>
    <desc>Created with Sketch.</desc>
    <defs>
        <polygon id="path-1" points="0.00397959184 0.0212244898 0.00397959184 26 25.9787755 26 25.9787755 0.0212244898 0.00397959184 0.0212244898"></polygon>
    </defs>
    <g id="----" stroke="none" stroke-width="1" fill="none" fill-rule="evenodd">
        <g id="Sticky-Header" transform="translate(-36.000000, -1362.000000)">
            <g id="Group-5" transform="translate(36.000000, 1255.000000)">
                <g id="next-copy-3" transform="translate(0.000000, 107.000000)">
                    <g id="Group-3">
                        <mask id="mask-2" fill="white">
                            <use xlink:href="#path-1"></use>
                        </mask>
                        <g id="Clip-2"></g>
                        <path d="M12.9893878,26 C20.1526531,26 25.9787755,20.1738776 25.9787755,13.0106122 C25.9787755,5.84734694 20.1526531,0.0212244898 12.9893878,0.0212244898 C5.82612245,0.0212244898 0,5.84734694 0,13.0106122 C0,20.1738776 5.82612245,26 12.9893878,26 Z M12.9893878,1.07183673 C19.574352,1.07183673 24.9281633,6.42564796 24.9281633,13.0106122 C24.9281633,19.5955765 19.574352,24.9493878 12.9893878,24.9493878 C6.40442347,24.9493878 1.05061224,19.5955765 1.05061224,13.0106122 C1.05061224,6.42564796 6.40442347,1.07183673 12.9893878,1.07183673 Z" id="Fill-1" fill="#424242" mask="url(#mask-2)"></path>
                        <circle id="Oval-5" fill="#335D94" mask="url(#mask-2)" cx="13" cy="13" r="13"></circle>
                    </g>
                    <path d="M12.1554247,17.8278149 C12.2563519,17.9405516 12.3945957,18 12.5273948,18 C12.6601938,18 12.798172,17.9405516 12.8990329,17.8278149 L16.8459531,13.4164633 C16.946814,13.3037267 17,13.1552913 17,13.00077 C17,12.8465456 16.946814,12.6981102 16.8459531,12.5850025 L12.8990329,8.17372508 C12.6918,7.94209164 12.3626576,7.94209164 12.1554247,8.17372508 C11.9481918,8.40535852 11.9481918,8.77325565 12.1554247,9.00488909 L15.7303748,13.00077 L12.1554247,16.9966509 C11.9536365,17.2282844 11.9536365,17.6022674 12.1554247,17.8278149 Z" id="Fill-4" fill="#FFFFFF"></path>
                </g>
            </g>
        </g>
    </g>
</svg>