<svg xmlns="http://www.w3.org/2000/svg" width="39" height="39" viewBox="0 0 39 39"><g fill="none"><g fill="#ECECEC"><path d="M19.4 0C8.7 0 0 8.7 0 19.4 0 30.1 8.7 38.8 19.4 38.8 30.1 38.8 38.8 30.1 38.8 19.4 38.8 8.7 30.1 0 19.4 0ZM19.4 36.7C9.8 36.7 2.1 29 2.1 19.4 2.1 9.8 9.8 2.1 19.4 2.1 29 2.1 36.7 9.8 36.7 19.4 36.7 29 29 36.7 19.4 36.7ZM20.8 19.4L27.2 13C27.7 12.6 27.7 12 27.2 11.5 26.8 11.1 26.2 11.1 25.8 11.5L19.4 18 13 11.5C12.6 11.1 12 11.1 11.5 11.5 11.1 12 11.1 12.6 11.5 13L18 19.4 11.5 25.8C11.1 26.2 11.1 26.8 11.5 27.2 12 27.7 12.6 27.7 13 27.2L19.4 20.8 25.8 27.2C26.2 27.7 26.8 27.7 27.2 27.2 27.7 26.8 27.7 26.2 27.2 25.8L20.8 19.4Z"/></g></g></svg>