<?xml version="1.0" encoding="UTF-8" standalone="no"?>
<svg width="246px" height="45px" viewBox="0 0 246 45" version="1.1" xmlns="http://www.w3.org/2000/svg" xmlns:xlink="http://www.w3.org/1999/xlink">
    <!-- Generator: sketchtool 44.1 (41455) - http://www.bohemiancoding.com/sketch -->
    <title>Logo</title>
    <desc>Created with sketchtool.</desc>
    <defs>
        <polygon id="path-1" points="0 45 245.91303 45 245.91303 0.264272727 0 0.264272727"></polygon>
    </defs>
    <g id="Header" stroke="none" stroke-width="1" fill="none" fill-rule="evenodd">
        <g id="Navigation-Sticky-Header" transform="translate(0.000000, -40.000000)">
            <g id="Logo" transform="translate(0.000000, 40.000000)">
                <polygon id="Fill-1" fill="#CA3F39" points="74.8824629 25 70.1183718 25 60 1 65.1464205 1 72.4824696 19.6052865 79.8544143 1 85 1"></polygon>
                <polygon id="Fill-2" fill="#CA3F39" points="112 25 94 25 94 1 112 1 112 5.3889289 98.4995876 5.3889289 98.4995876 10.9080152 111.518373 10.9080152 111.518373 15.12491 98.4995876 15.12491 98.4995876 20.5427513 112 20.5427513"></polygon>
                <g id="Group-27">
                    <path d="M127.263172,5.27342727 L127.263172,12.9078818 L134.197556,12.9078818 C137.095717,12.9078818 138.337313,10.9982455 138.337313,9.09106364 C138.337313,7.18224545 137.061758,5.27342727 134.197556,5.27342727 L127.263172,5.27342727 Z M144.099677,24.9376091 L138.682707,24.9376091 L131.644788,16.9627909 L127.263172,16.9627909 L127.263172,24.9376091 L122.709273,24.9376091 L122.709273,1.04751818 C126.538424,1.04751818 130.368404,1.08188182 134.197556,1.08188182 C139.890343,1.11624545 142.89204,4.86433636 142.89204,8.98879091 C142.89204,12.2598818 141.373798,15.5653364 136.785111,16.4857909 L144.099677,24.6307909 L144.099677,24.9376091 Z" id="Fill-3" fill="#CA3F39"></path>
                    <mask id="mask-2" fill="white">
                        <use xlink:href="#path-1"></use>
                    </mask>
                    <g id="Clip-6"></g>
                    <polygon id="Fill-5" fill="#CA3F39" mask="url(#mask-2)" points="152.723758 24.9373636 157.243697 24.9373636 157.243697 1.08163636 152.723758 1.08163636"></polygon>
                    <polygon id="Fill-7" fill="#CA3F39" mask="url(#mask-2)" points="175.597202 5.17115455 167.938899 5.17115455 167.938899 1.08188182 187.811061 1.08188182 187.811061 5.17115455 180.151101 5.17115455 180.151101 24.9376091 175.597202 24.9376091"></polygon>
                    <path d="M205.60622,6.09079091 L201.121069,16.2468818 L210.091372,16.2468818 L205.60622,6.09079091 Z M211.92022,20.4392455 L199.293048,20.4392455 L197.22317,24.9376091 L192.289089,24.9376091 L203.1222,1.08188182 L208.09024,1.08188182 L218.923352,24.9376091 L213.956139,24.9376091 L211.92022,20.4392455 Z" id="Fill-8" fill="#CA3F39" mask="url(#mask-2)"></path>
                    <path d="M241.531414,6.84106364 C240.70396,5.47797273 238.42701,4.18360909 235.804667,4.18360909 C232.424444,4.18360909 230.801838,5.58024545 230.801838,7.35242727 C230.801838,9.43142727 233.285859,10.0107 236.184848,10.3510636 C241.221636,10.9647 245.91303,12.2598818 245.91303,17.9511545 C245.91303,23.2677 241.152889,25.5512455 235.770707,25.5512455 C230.836626,25.5512455 227.041434,24.0507 225.248202,19.6889727 L229.042566,17.7474273 C230.112707,20.3705182 232.906505,21.5298818 235.839455,21.5298818 C238.702828,21.5298818 241.393919,20.5415182 241.393919,17.9511545 C241.393919,15.7019727 239.013434,14.7815182 235.804667,14.4411545 C230.871414,13.8618818 226.316687,12.5667 226.316687,7.21579091 C226.316687,2.30833636 231.21598,0.298881818 235.667172,0.264518182 C239.426747,0.264518182 243.326303,1.32079091 245.154323,5.00097273 L241.531414,6.84106364 Z" id="Fill-9" fill="#CA3F39" mask="url(#mask-2)"></path>
                    <polygon id="Fill-10" fill="#ABABAB" mask="url(#mask-2)" points="16.9733374 40.4161364 22.5907515 27.3064091 11.3542667 27.3064091"></polygon>
                    <polygon id="Fill-11" fill="#ABABAB" mask="url(#mask-2)" points="24.1832081 23.6729455 28.2260566 14.1934909 5.75722828 14.1934909 9.76611717 23.6729455"></polygon>
                    <polygon id="Fill-12" fill="#ABABAB" mask="url(#mask-2)" points="29.7595394 10.5604364 33.8595394 1.0818 0.000165656566 1.0818 4.12832727 10.5604364"></polygon>
                    <polygon id="Fill-13" fill="#CA3F39" mask="url(#mask-2)" points="18.9922768 45 37.8572465 1.08163636 48.2977515 1.08163636 29.4087616 45"></polygon>
                    <polygon id="Fill-14" fill="#ABABAB" mask="url(#mask-2)" points="67.0492465 43.8214909 69.9217313 43.8214909 69.9217313 44.9113091 65.712398 44.9113091 65.712398 37.8127636 67.0492465 37.8127636"></polygon>
                    <polygon id="Fill-15" fill="#ABABAB" mask="url(#mask-2)" points="79.0860182 37.8129273 79.0860182 38.8634727 75.8946444 38.8634727 75.8946444 40.8312 78.4101394 40.8312 78.4101394 41.8482 75.8946444 41.8482 75.8946444 43.8560182 79.0860182 43.8560182 79.0860182 44.9114727 74.5528263 44.9114727 74.5528263 37.8129273"></polygon>
                    <path d="M88.6250202,44.8058455 C88.2125354,44.9285727 87.7710606,44.9899364 87.300596,44.9899364 C86.7141717,44.9899364 86.1832424,44.8999364 85.7086364,44.7199364 C85.2323737,44.5399364 84.8265152,44.2895727 84.4902323,43.9688455 C84.1539495,43.6481182 83.894697,43.2652091 83.7124747,42.8201182 C83.5302525,42.3750273 83.4391414,41.8890273 83.4391414,41.3621182 C83.4391414,40.8286636 83.5269394,40.3393909 83.7025354,39.8943 C83.8781313,39.4492091 84.1274444,39.0663 84.4504747,38.7455727 C84.7735051,38.4248455 85.1652828,38.1753 85.6258081,37.9993909 C86.0863333,37.8226636 86.6031818,37.7334818 87.1763535,37.7334818 C87.4679091,37.7334818 87.7404141,37.7572091 87.9938687,37.8022091 C88.2473232,37.8488455 88.4825556,37.9118455 88.6995657,37.9920273 C88.9165758,38.0722091 89.1145354,38.1695727 89.2934444,38.2841182 C89.4723535,38.3986636 89.6363535,38.5246636 89.7854444,38.6621182 L89.4027778,39.2610273 C89.3431414,39.3559364 89.2652828,39.4140273 89.169202,39.4353 C89.0731212,39.4565727 88.9687576,39.4328455 88.8561111,39.3641182 C88.7467778,39.3019364 88.6374444,39.2397545 88.5281111,39.1775727 C88.4187778,39.1153909 88.2970202,39.0613909 88.1628384,39.0155727 C88.0286566,38.9697545 87.8779091,38.9321182 87.710596,38.9026636 C87.5432828,38.8732091 87.3502929,38.8576636 87.1316263,38.8576636 C86.7771212,38.8576636 86.4565758,38.9173909 86.1699899,39.0352091 C85.883404,39.1530273 85.6390606,39.3215727 85.4369596,39.5400273 C85.2348586,39.7601182 85.0791414,40.0235727 84.9698081,40.3312091 C84.8604747,40.6388455 84.8058081,40.9824818 84.8058081,41.3621182 C84.8058081,41.7679364 84.8646162,42.1295727 84.9830606,42.4494818 C85.0998485,42.7685727 85.2655051,43.0385727 85.479202,43.2594818 C85.692899,43.4803909 85.9504949,43.6489364 86.2519899,43.7651182 C86.5534848,43.8813 86.8897677,43.9385727 87.2616667,43.9385727 C87.5258889,43.9385727 87.7627778,43.9123909 87.9715051,43.8583909 C88.1802323,43.8043909 88.3839899,43.7299364 88.5827778,43.6350273 L88.5827778,42.3439364 L87.6782929,42.3439364 C87.5921515,42.3439364 87.5250606,42.3202091 87.4770202,42.2727545 C87.4289798,42.2253 87.4049596,42.1672091 87.4049596,42.0976636 L87.4049596,41.3523 L89.7904141,41.3523 L89.7904141,44.2241182 C89.4259697,44.4892091 89.0375051,44.6831182 88.6250202,44.8058455" id="Fill-16" fill="#ABABAB" mask="url(#mask-2)"></path>
                    <path d="M96.1070646,42.2306182 L98.3980949,42.2306182 L97.5234283,39.8693455 C97.4803576,39.7646182 97.4356303,39.6410727 97.3892465,39.4987091 C97.3428626,39.3563455 97.2964788,39.2025273 97.2500949,39.0356182 C97.2037111,39.2025273 97.1581556,39.3571636 97.1134283,39.5011636 C97.068701,39.6459818 97.0239737,39.7711636 96.9817313,39.8791636 L96.1070646,42.2306182 Z M100.758701,44.9109818 L99.725004,44.9109818 C99.6090444,44.9109818 99.5137919,44.8823455 99.440903,44.8250727 C99.3688424,44.7686182 99.3141758,44.6974364 99.2777313,44.6115273 L98.741004,43.1641636 L95.7641556,43.1641636 L95.2266,44.6115273 C95.2000949,44.6868 95.1495697,44.7563455 95.0733677,44.8177091 C94.9971657,44.8798909 94.9027414,44.9109818 94.7900949,44.9109818 L93.7456303,44.9109818 L96.5733879,37.8132545 L97.9359131,37.8132545 L100.758701,44.9109818 Z" id="Fill-17" fill="#ABABAB" mask="url(#mask-2)"></path>
                    <polygon id="Fill-18" fill="#ABABAB" mask="url(#mask-2)" points="106.508392 43.8214909 109.380877 43.8214909 109.380877 44.9113091 105.171543 44.9113091 105.171543 37.8127636 106.508392 37.8127636"></polygon>
                    <path d="M123.643493,39.1041 C123.603735,39.1728273 123.561493,39.2227364 123.516766,39.2538273 C123.472038,39.2849182 123.416543,39.2996455 123.350281,39.2996455 C123.280705,39.2996455 123.205331,39.2751 123.12416,39.2235545 C123.042988,39.1736455 122.946079,39.1171909 122.833432,39.0541909 C122.720786,38.9920091 122.589089,38.9363727 122.438341,38.8848273 C122.287594,38.8349182 122.109513,38.8095545 121.904099,38.8095545 C121.718564,38.8095545 121.55622,38.8316455 121.417069,38.8758273 C121.278745,38.9191909 121.161129,38.9813727 121.066705,39.0591 C120.972281,39.1384636 120.901877,39.2317364 120.855493,39.3421909 C120.809109,39.4518273 120.785917,39.5712818 120.785917,39.7021909 C120.785917,39.8699182 120.833129,40.0081909 120.927554,40.1194636 C121.021978,40.2315545 121.147048,40.3264636 121.302766,40.4050091 C121.458483,40.4835545 121.635735,40.5531 121.834523,40.6161 C122.033311,40.6782818 122.237069,40.7445545 122.445796,40.8149182 C122.654523,40.8852818 122.858281,40.9662818 123.057069,41.0603727 C123.255857,41.1536455 123.433109,41.2706455 123.588826,41.4130091 C123.744543,41.5561909 123.869614,41.7304636 123.964038,41.9366455 C124.058463,42.1428273 124.105675,42.3931909 124.105675,42.6877364 C124.105675,43.0076455 124.05018,43.3087364 123.93919,43.5877364 C123.8282,43.8675545 123.665857,44.1121909 123.452988,44.3200091 C123.238463,44.5278273 122.977554,44.6914636 122.669432,44.8109182 C122.361311,44.9303727 122.008463,44.9892818 121.610887,44.9892818 C121.383109,44.9892818 121.156988,44.9680091 120.935008,44.9230091 C120.713028,44.8796455 120.50016,44.8158273 120.296402,44.7348273 C120.092644,44.6521909 119.901311,44.5548273 119.722402,44.4394636 C119.543493,44.3257364 119.384463,44.1981 119.245311,44.0573727 L119.637917,43.4232818 C119.671048,43.3782818 119.714119,43.3398273 119.767129,43.3087364 C119.820139,43.2776455 119.876463,43.2621 119.936099,43.2621 C120.018927,43.2621 120.108382,43.2956455 120.204463,43.3627364 C120.300543,43.4298273 120.414846,43.5042818 120.547372,43.5861 C120.679897,43.6679182 120.834786,43.7423727 121.012038,43.8094636 C121.189291,43.8765545 121.40216,43.9101 121.650644,43.9101 C122.031655,43.9101 122.326523,43.8209182 122.535251,43.6425545 C122.743978,43.4641909 122.848341,43.2081 122.848341,42.8734636 C122.848341,42.6877364 122.801129,42.5347364 122.706705,42.4177364 C122.612281,42.2991 122.48721,42.2009182 122.331493,42.1207364 C122.175776,42.0405545 121.998523,41.9726455 121.799735,41.9170091 C121.600947,41.8613727 121.398846,41.8008273 121.193432,41.7353727 C120.988018,41.6699182 120.785917,41.5913727 120.587958,41.4997364 C120.388341,41.4072818 120.211089,41.2886455 120.055372,41.1405545 C119.899655,40.9941 119.774584,40.8100091 119.68016,40.5882818 C119.585735,40.3681909 119.538523,40.0957364 119.538523,39.7709182 C119.538523,39.5131909 119.590705,39.2603727 119.695069,39.0157364 C119.799432,38.7702818 119.951008,38.5526455 120.149796,38.3628273 C120.348584,38.1721909 120.593756,38.0208273 120.885311,37.9062818 C121.176867,37.7917364 121.511493,37.7336455 121.88919,37.7336455 C122.313271,37.7336455 122.70422,37.7991 123.062038,37.9300091 C123.419857,38.0617364 123.724665,38.2441909 123.976463,38.4798273 L123.643493,39.1041 Z" id="Fill-19" fill="#ABABAB" mask="url(#mask-2)"></path>
                    <polygon id="Fill-20" fill="#ABABAB" mask="url(#mask-2)" points="133.478523 37.8129273 133.478523 38.8634727 130.287149 38.8634727 130.287149 40.8312 132.802644 40.8312 132.802644 41.8482 130.287149 41.8482 130.287149 43.8560182 133.478523 43.8560182 133.478523 44.9114727 128.945331 44.9114727 128.945331 37.8129273"></polygon>
                    <path d="M139.676067,41.1903 L140.510976,41.1903 C140.762774,41.1903 140.982269,41.1592091 141.169461,41.0970273 C141.356653,41.0348455 141.510713,40.9489364 141.631642,40.8393 C141.752572,40.7296636 141.842855,40.5995727 141.902491,40.4490273 C141.962127,40.2984818 141.991945,40.1332091 141.991945,39.9532091 C141.991945,39.5932091 141.871844,39.3166636 141.631642,39.1235727 C141.39144,38.9304818 141.024511,38.8339364 140.530855,38.8339364 L139.676067,38.8339364 L139.676067,41.1903 Z M139.676067,42.1377545 L139.676067,44.9113909 L138.339218,44.9113909 L138.339218,37.8128455 L140.530855,37.8128455 C141.017885,37.8128455 141.436168,37.8627545 141.785703,37.9625727 C142.135238,38.0623909 142.420996,38.2023 142.645461,38.3814818 C142.868269,38.5623 143.033925,38.7774818 143.139945,39.0270273 C143.245966,39.2782091 143.298976,39.5539364 143.298976,39.8550273 C143.298976,40.0939364 143.26336,40.3197545 143.192127,40.5324818 C143.120895,40.7452091 143.018188,40.9374818 142.884006,41.1117545 C142.749824,41.2852091 142.584168,41.4373909 142.386208,41.5683 C142.189905,41.6992091 141.96544,41.8039364 141.713642,41.8824818 C141.882612,41.9773909 142.02839,42.1132091 142.150976,42.2899364 L143.950006,44.9113909 L142.74237,44.9113909 C142.513764,44.9113909 142.348107,44.8222091 142.2454,44.6463 L140.734612,42.3733909 C140.678289,42.2883 140.616168,42.2277545 140.548248,42.1917545 C140.480329,42.1557545 140.380107,42.1377545 140.246754,42.1377545 L139.676067,42.1377545 Z" id="Fill-21" fill="#ABABAB" mask="url(#mask-2)"></path>
                    <path d="M147.363608,37.8129273 L148.437891,37.8129273 C148.553851,37.8129273 148.648275,37.8407455 148.721164,37.8963818 C148.794053,37.9520182 148.847891,38.0240182 148.884335,38.1123818 L150.57983,42.4422 C150.635325,42.5829273 150.689992,42.7375636 150.740517,42.9061091 C150.792699,43.0746545 150.840739,43.2505636 150.887952,43.4338364 C150.924396,43.2505636 150.966638,43.0746545 151.013851,42.9061091 C151.062719,42.7375636 151.114073,42.5829273 151.171224,42.4422 L152.855952,38.1123818 C152.881628,38.0362909 152.934638,37.9675636 153.011669,37.9062 C153.089527,37.8440182 153.18478,37.8129273 153.297426,37.8129273 L154.376679,37.8129273 L151.474376,44.9114727 L150.266739,44.9114727 L147.363608,37.8129273 Z" id="Fill-22" fill="#ABABAB" mask="url(#mask-2)"></path>
                    <polygon id="Fill-23" fill="#ABABAB" mask="url(#mask-2)" points="158.799212 44.9116364 160.14103 44.9116364 160.14103 37.8130909 158.799212 37.8130909"></polygon>
                    <path d="M170.348457,43.2373909 C170.421345,43.2373909 170.485952,43.2652091 170.542275,43.3208455 L171.069063,43.8853909 C170.778335,44.2421182 170.418861,44.5153909 169.993123,44.7052091 C169.568214,44.8950273 169.056335,44.9899364 168.459972,44.9899364 C167.926558,44.9899364 167.446982,44.8999364 167.021244,44.7199364 C166.595507,44.5399364 166.231891,44.2895727 165.930396,43.9688455 C165.628901,43.6481182 165.39781,43.2652091 165.237123,42.8201182 C165.076436,42.3750273 164.996093,41.8890273 164.996093,41.3621182 C164.996093,40.8286636 165.083063,40.3402091 165.255345,39.8967545 C165.427628,39.4533 165.670315,39.0712091 165.982578,38.7504818 C166.295669,38.4297545 166.670053,38.1802091 167.103244,38.0018455 C167.537265,37.8234818 168.018497,37.7334818 168.544457,37.7334818 C169.067931,37.7334818 169.533426,37.8193909 169.938457,37.9895727 C170.344315,38.1597545 170.689709,38.3814818 170.974638,38.6572091 L170.527366,39.2708455 C170.501689,39.3101182 170.467729,39.3444818 170.425487,39.3739364 C170.384073,39.4025727 170.326921,39.4181182 170.254032,39.4181182 C170.204335,39.4181182 170.152982,39.4033909 170.099972,39.3763909 C170.046962,39.3485727 169.988982,39.3142091 169.926032,39.2733 C169.863083,39.2315727 169.790194,39.1873909 169.708194,39.1383 C169.624537,39.0892091 169.528457,39.0442091 169.419123,39.0033 C169.30979,38.9623909 169.183063,38.9280273 169.038941,38.9002091 C168.89482,38.8723909 168.728335,38.8576636 168.539487,38.8576636 C168.218113,38.8576636 167.924073,38.9149364 167.657366,39.0270273 C167.390659,39.1407545 167.161224,39.3043909 166.969063,39.5187545 C166.776901,39.7331182 166.62781,39.9949364 166.52179,40.3042091 C166.41577,40.6134818 166.36276,40.9661182 166.36276,41.3621182 C166.36276,41.7613909 166.419911,42.1164818 166.535042,42.4273909 C166.648517,42.7383 166.803406,43.0001182 166.998881,43.2128455 C167.194356,43.4247545 167.424618,43.5883909 167.689669,43.7013 C167.954719,43.8142091 168.239648,43.8698455 168.544457,43.8698455 C168.726679,43.8698455 168.891507,43.8608455 169.038941,43.8412091 C169.186376,43.8215727 169.322214,43.7904818 169.446457,43.7479364 C169.571527,43.7053909 169.688315,43.6505727 169.799305,43.5834818 C169.910295,43.5163909 170.020457,43.4337545 170.12979,43.3355727 C170.162921,43.3061182 170.197709,43.2823909 170.234154,43.2643909 C170.270598,43.2463909 170.308699,43.2373909 170.348457,43.2373909" id="Fill-24" fill="#ABABAB" mask="url(#mask-2)"></path>
                    <polygon id="Fill-25" fill="#ABABAB" mask="url(#mask-2)" points="180.198065 37.8129273 180.198065 38.8634727 177.006691 38.8634727 177.006691 40.8312 179.522186 40.8312 179.522186 41.8482 177.006691 41.8482 177.006691 43.8560182 180.198065 43.8560182 180.198065 44.9114727 175.664873 44.9114727 175.664873 37.8129273"></polygon>
                    <path d="M188.815685,39.1041 C188.775927,39.1728273 188.733685,39.2227364 188.688958,39.2538273 C188.64423,39.2849182 188.588735,39.2996455 188.522473,39.2996455 C188.452897,39.2996455 188.377523,39.2751 188.296352,39.2235545 C188.21518,39.1736455 188.118271,39.1171909 188.005624,39.0541909 C187.892978,38.9920091 187.761281,38.9363727 187.610533,38.8848273 C187.459786,38.8349182 187.281705,38.8095545 187.076291,38.8095545 C186.890756,38.8095545 186.728412,38.8316455 186.589261,38.8758273 C186.450937,38.9191909 186.333321,38.9813727 186.238897,39.0591 C186.144473,39.1384636 186.074069,39.2317364 186.027685,39.3421909 C185.981301,39.4518273 185.958109,39.5712818 185.958109,39.7021909 C185.958109,39.8699182 186.005321,40.0081909 186.099745,40.1194636 C186.19417,40.2315545 186.31924,40.3264636 186.474958,40.4050091 C186.630675,40.4835545 186.807927,40.5531 187.006715,40.6161 C187.205503,40.6782818 187.409261,40.7445545 187.617988,40.8149182 C187.826715,40.8852818 188.030473,40.9662818 188.229261,41.0603727 C188.428048,41.1536455 188.605301,41.2706455 188.761018,41.4130091 C188.916735,41.5561909 189.041806,41.7304636 189.13623,41.9366455 C189.230655,42.1428273 189.277867,42.3931909 189.277867,42.6877364 C189.277867,43.0076455 189.222372,43.3087364 189.111382,43.5877364 C189.000392,43.8675545 188.838048,44.1121909 188.62518,44.3200091 C188.410655,44.5278273 188.149745,44.6914636 187.841624,44.8109182 C187.533503,44.9303727 187.180655,44.9892818 186.783079,44.9892818 C186.555301,44.9892818 186.32918,44.9680091 186.1072,44.9230091 C185.88522,44.8796455 185.672352,44.8158273 185.468594,44.7348273 C185.264836,44.6521909 185.073503,44.5548273 184.894594,44.4394636 C184.715685,44.3257364 184.556655,44.1981 184.417503,44.0573727 L184.810109,43.4232818 C184.84324,43.3782818 184.886311,43.3398273 184.939321,43.3087364 C184.992331,43.2776455 185.048655,43.2621 185.108291,43.2621 C185.191119,43.2621 185.280574,43.2956455 185.376655,43.3627364 C185.472735,43.4298273 185.587038,43.5042818 185.719564,43.5861 C185.852089,43.6679182 186.006978,43.7423727 186.18423,43.8094636 C186.361483,43.8765545 186.574352,43.9101 186.822836,43.9101 C187.203846,43.9101 187.498715,43.8209182 187.707442,43.6425545 C187.91617,43.4641909 188.020533,43.2081 188.020533,42.8734636 C188.020533,42.6877364 187.973321,42.5347364 187.878897,42.4177364 C187.784473,42.2991 187.659402,42.2009182 187.503685,42.1207364 C187.347968,42.0405545 187.170715,41.9726455 186.971927,41.9170091 C186.773139,41.8613727 186.571038,41.8008273 186.365624,41.7353727 C186.16021,41.6699182 185.958109,41.5913727 185.760149,41.4997364 C185.560533,41.4072818 185.383281,41.2886455 185.227564,41.1405545 C185.071846,40.9941 184.946776,40.8100091 184.852352,40.5882818 C184.757927,40.3681909 184.710715,40.0957364 184.710715,39.7709182 C184.710715,39.5131909 184.762897,39.2603727 184.867261,39.0157364 C184.971624,38.7702818 185.1232,38.5526455 185.321988,38.3628273 C185.520776,38.1721909 185.765947,38.0208273 186.057503,37.9062818 C186.349059,37.7917364 186.683685,37.7336455 187.061382,37.7336455 C187.485463,37.7336455 187.876412,37.7991 188.23423,37.9300091 C188.592048,38.0617364 188.896857,38.2441909 189.148655,38.4798273 L188.815685,39.1041 Z" id="Fill-26" fill="#ABABAB" mask="url(#mask-2)"></path>
                </g>
            </g>
        </g>
    </g>
</svg>