<?xml version="1.0" encoding="UTF-8"?>
<svg width="297px" height="55px" viewBox="0 0 297 55" version="1.1" xmlns="http://www.w3.org/2000/svg" xmlns:xlink="http://www.w3.org/1999/xlink">
    <!-- Generator: Sketch 43.2 (39069) - http://www.bohemiancoding.com/sketch -->
    <title>Page 1</title>
    <desc>Created with Sketch.</desc>
    <defs>
        <polygon id="path-1" points="0 55 296.895 55 296.895 0.323 0 0.323"></polygon>
    </defs>
    <g id="Header" stroke="none" stroke-width="1" fill="none" fill-rule="evenodd">
        <g id="Navigation" transform="translate(0.000000, -41.000000)">
            <g id="Page-1" transform="translate(0.000000, 40.000000)">
                <polygon id="Fill-1" fill="#FFFFFF" points="90.3784 31.2813 84.6714 31.2813 72.5504 1.9993 78.7154 1.9993 87.5034 24.6993 96.3344 1.9993 102.4984 1.9993"></polygon>
                <polygon id="Fill-2" fill="#FFFFFF" points="135.7378 31.1563 113.9118 31.1563 113.9118 1.9993 135.7378 1.9993 135.7378 7.3313 119.3678 7.3313 119.3678 14.0363 135.1538 14.0363 135.1538 19.1593 119.3678 19.1593 119.3678 25.7413 135.7378 25.7413"></polygon>
                <g id="Group-27" transform="translate(0.000000, 0.676800)">
                    <path d="M153.647,6.4453 L153.647,15.7763 L162.019,15.7763 C165.518,15.7763 167.017,13.4423 167.017,11.1113 C167.017,8.7783 165.477,6.4453 162.019,6.4453 L153.647,6.4453 Z M173.974,30.4793 L167.434,30.4793 L158.937,20.7323 L153.647,20.7323 L153.647,30.4793 L148.149,30.4793 L148.149,1.2803 C152.772,1.2803 157.396,1.3223 162.019,1.3223 C168.892,1.3643 172.516,5.9453 172.516,10.9863 C172.516,14.9843 170.683,19.0243 165.143,20.1493 L173.974,30.1043 L173.974,30.4793 Z" id="Fill-3" fill="#FFFFFF"></path>
                    <mask id="mask-2" fill="white">
                        <use xlink:href="#path-1"></use>
                    </mask>
                    <g id="Clip-6"></g>
                    <polygon id="Fill-5" fill="#FFFFFF" mask="url(#mask-2)" points="184.386 30.479 189.843 30.479 189.843 1.322 184.386 1.322"></polygon>
                    <polygon id="Fill-7" fill="#FFFFFF" mask="url(#mask-2)" points="212.0015 6.3203 202.7555 6.3203 202.7555 1.3223 226.7475 1.3223 226.7475 6.3203 217.4995 6.3203 217.4995 30.4793 212.0015 30.4793"></polygon>
                    <path d="M248.2319,7.4443 L242.8169,19.8573 L253.6469,19.8573 L248.2319,7.4443 Z M255.8549,24.9813 L240.6099,24.9813 L238.1109,30.4793 L232.1539,30.4793 L245.2329,1.3223 L251.2309,1.3223 L264.3099,30.4793 L258.3129,30.4793 L255.8549,24.9813 Z" id="Fill-8" fill="#FFFFFF" mask="url(#mask-2)"></path>
                    <path d="M291.605,8.3613 C290.606,6.6953 287.857,5.1133 284.691,5.1133 C280.61,5.1133 278.651,6.8203 278.651,8.9863 C278.651,11.5273 281.65,12.2353 285.15,12.6513 C291.231,13.4013 296.895,14.9843 296.895,21.9403 C296.895,28.4383 291.148,31.2293 284.65,31.2293 C278.693,31.2293 274.111,29.3953 271.946,24.0643 L276.527,21.6913 C277.819,24.8973 281.192,26.3143 284.733,26.3143 C288.19,26.3143 291.439,25.1063 291.439,21.9403 C291.439,19.1913 288.565,18.0663 284.691,17.6503 C278.735,16.9423 273.236,15.3593 273.236,8.8193 C273.236,2.8213 279.151,0.3653 284.525,0.3233 C289.064,0.3233 293.772,1.6143 295.979,6.1123 L291.605,8.3613 Z" id="Fill-9" fill="#FFFFFF" mask="url(#mask-2)"></path>
                    <polygon id="Fill-10" fill="#FFFFFF" mask="url(#mask-2)" points="20.4922 49.3975 27.2742 33.3745 13.7082 33.3745"></polygon>
                    <polygon id="Fill-11" fill="#FFFFFF" mask="url(#mask-2)" points="29.1968 28.9336 34.0778 17.3476 6.9508 17.3476 11.7908 28.9336"></polygon>
                    <polygon id="Fill-12" fill="#FFFFFF" mask="url(#mask-2)" points="35.9292 12.9072 40.8792 1.3222 0.0002 1.3222 4.9842 12.9072"></polygon>
                    <polygon id="Fill-13" fill="#FFFFFF" mask="url(#mask-2)" points="22.9297 55 45.7057 1.322 58.3107 1.322 35.5057 55"></polygon>
                    <polygon id="Fill-14" fill="#FFFFFF" mask="url(#mask-2)" points="80.9497 53.5596 84.4177 53.5596 84.4177 54.8916 79.3357 54.8916 79.3357 46.2156 80.9497 46.2156"></polygon>
                    <polygon id="Fill-15" fill="#FFFFFF" mask="url(#mask-2)" points="95.4819 46.2158 95.4819 47.4998 91.6289 47.4998 91.6289 49.9048 94.6659 49.9048 94.6659 51.1478 91.6289 51.1478 91.6289 53.6018 95.4819 53.6018 95.4819 54.8918 90.0089 54.8918 90.0089 46.2158"></polygon>
                    <path d="M106.9985,54.7627 C106.5005,54.9127 105.9675,54.9877 105.3995,54.9877 C104.6915,54.9877 104.0505,54.8777 103.4775,54.6577 C102.9025,54.4377 102.4125,54.1317 102.0065,53.7397 C101.6005,53.3477 101.2875,52.8797 101.0675,52.3357 C100.8475,51.7917 100.7375,51.1977 100.7375,50.5537 C100.7375,49.9017 100.8435,49.3037 101.0555,48.7597 C101.2675,48.2157 101.5685,47.7477 101.9585,47.3557 C102.3485,46.9637 102.8215,46.6587 103.3775,46.4437 C103.9335,46.2277 104.5575,46.1187 105.2495,46.1187 C105.6015,46.1187 105.9305,46.1477 106.2365,46.2027 C106.5425,46.2597 106.8265,46.3367 107.0885,46.4347 C107.3505,46.5327 107.5895,46.6517 107.8055,46.7917 C108.0215,46.9317 108.2195,47.0857 108.3995,47.2537 L107.9375,47.9857 C107.8655,48.1017 107.7715,48.1727 107.6555,48.1987 C107.5395,48.2247 107.4135,48.1957 107.2775,48.1117 C107.1455,48.0357 107.0135,47.9597 106.8815,47.8837 C106.7495,47.8077 106.6025,47.7417 106.4405,47.6857 C106.2785,47.6297 106.0965,47.5837 105.8945,47.5477 C105.6925,47.5117 105.4595,47.4927 105.1955,47.4927 C104.7675,47.4927 104.3805,47.5657 104.0345,47.7097 C103.6885,47.8537 103.3935,48.0597 103.1495,48.3267 C102.9055,48.5957 102.7175,48.9177 102.5855,49.2937 C102.4535,49.6697 102.3875,50.0897 102.3875,50.5537 C102.3875,51.0497 102.4585,51.4917 102.6015,51.8827 C102.7425,52.2727 102.9425,52.6027 103.2005,52.8727 C103.4585,53.1427 103.7695,53.3487 104.1335,53.4907 C104.4975,53.6327 104.9035,53.7027 105.3525,53.7027 C105.6715,53.7027 105.9575,53.6707 106.2095,53.6047 C106.4615,53.5387 106.7075,53.4477 106.9475,53.3317 L106.9475,51.7537 L105.8555,51.7537 C105.7515,51.7537 105.6705,51.7247 105.6125,51.6667 C105.5545,51.6087 105.5255,51.5377 105.5255,51.4527 L105.5255,50.5417 L108.4055,50.5417 L108.4055,54.0517 C107.9655,54.3757 107.4965,54.6127 106.9985,54.7627" id="Fill-16" fill="#FFFFFF" mask="url(#mask-2)"></path>
                    <path d="M116.0317,51.6152 L118.7977,51.6152 L117.7417,48.7292 C117.6897,48.6012 117.6357,48.4502 117.5797,48.2762 C117.5237,48.1022 117.4677,47.9142 117.4117,47.7102 C117.3557,47.9142 117.3007,48.1032 117.2467,48.2792 C117.1927,48.4562 117.1387,48.6092 117.0877,48.7412 L116.0317,51.6152 Z M121.6477,54.8912 L120.3997,54.8912 C120.2597,54.8912 120.1447,54.8562 120.0567,54.7862 C119.9697,54.7172 119.9037,54.6302 119.8597,54.5252 L119.2117,52.7562 L115.6177,52.7562 L114.9687,54.5252 C114.9367,54.6172 114.8757,54.7022 114.7837,54.7772 C114.6917,54.8532 114.5777,54.8912 114.4417,54.8912 L113.1807,54.8912 L116.5947,46.2162 L118.2397,46.2162 L121.6477,54.8912 Z" id="Fill-17" fill="#FFFFFF" mask="url(#mask-2)"></path>
                    <polygon id="Fill-18" fill="#FFFFFF" mask="url(#mask-2)" points="128.5894 53.5596 132.0574 53.5596 132.0574 54.8916 126.9754 54.8916 126.9754 46.2156 128.5894 46.2156"></polygon>
                    <path d="M149.2769,47.7939 C149.2289,47.8779 149.1779,47.9389 149.1239,47.9769 C149.0699,48.0149 149.0029,48.0329 148.9229,48.0329 C148.8389,48.0329 148.7479,48.0029 148.6499,47.9399 C148.5519,47.8789 148.4349,47.8099 148.2989,47.7329 C148.1629,47.6569 148.0039,47.5889 147.8219,47.5259 C147.6399,47.4649 147.4249,47.4339 147.1769,47.4339 C146.9529,47.4339 146.7569,47.4609 146.5889,47.5149 C146.4219,47.5679 146.2799,47.6439 146.1659,47.7389 C146.0519,47.8359 145.9669,47.9499 145.9109,48.0849 C145.8549,48.2189 145.8269,48.3649 145.8269,48.5249 C145.8269,48.7299 145.8839,48.8989 145.9979,49.0349 C146.1119,49.1719 146.2629,49.2879 146.4509,49.3839 C146.6389,49.4799 146.8529,49.5649 147.0929,49.6419 C147.3329,49.7179 147.5789,49.7989 147.8309,49.8849 C148.0829,49.9709 148.3289,50.0699 148.5689,50.1849 C148.8089,50.2989 149.0229,50.4419 149.2109,50.6159 C149.3989,50.7909 149.5499,51.0039 149.6639,51.2559 C149.7779,51.5079 149.8349,51.8139 149.8349,52.1739 C149.8349,52.5649 149.7679,52.9329 149.6339,53.2739 C149.4999,53.6159 149.3039,53.9149 149.0469,54.1689 C148.7879,54.4229 148.4729,54.6229 148.1009,54.7689 C147.7289,54.9149 147.3029,54.9869 146.8229,54.9869 C146.5479,54.9869 146.2749,54.9609 146.0069,54.9059 C145.7389,54.8529 145.4819,54.7749 145.2359,54.6759 C144.9899,54.5749 144.7589,54.4559 144.5429,54.3149 C144.3269,54.1759 144.1349,54.0199 143.9669,53.8479 L144.4409,53.0729 C144.4809,53.0179 144.5329,52.9709 144.5969,52.9329 C144.6609,52.8949 144.7289,52.8759 144.8009,52.8759 C144.9009,52.8759 145.0089,52.9169 145.1249,52.9989 C145.2409,53.0809 145.3789,53.1719 145.5389,53.2719 C145.6989,53.3719 145.8859,53.4629 146.0999,53.5449 C146.3139,53.6269 146.5709,53.6679 146.8709,53.6679 C147.3309,53.6679 147.6869,53.5589 147.9389,53.3409 C148.1909,53.1229 148.3169,52.8099 148.3169,52.4009 C148.3169,52.1739 148.2599,51.9869 148.1459,51.8439 C148.0319,51.6989 147.8809,51.5789 147.6929,51.4809 C147.5049,51.3829 147.2909,51.2999 147.0509,51.2319 C146.8109,51.1639 146.5669,51.0899 146.3189,51.0099 C146.0709,50.9299 145.8269,50.8339 145.5879,50.7219 C145.3469,50.6089 145.1329,50.4639 144.9449,50.2829 C144.7569,50.1039 144.6059,49.8789 144.4919,49.6079 C144.3779,49.3389 144.3209,49.0059 144.3209,48.6089 C144.3209,48.2939 144.3839,47.9849 144.5099,47.6859 C144.6359,47.3859 144.8189,47.1199 145.0589,46.8879 C145.2989,46.6549 145.5949,46.4699 145.9469,46.3299 C146.2989,46.1899 146.7029,46.1189 147.1589,46.1189 C147.6709,46.1189 148.1429,46.1989 148.5749,46.3589 C149.0069,46.5199 149.3749,46.7429 149.6789,47.0309 L149.2769,47.7939 Z" id="Fill-19" fill="#FFFFFF" mask="url(#mask-2)"></path>
                    <polygon id="Fill-20" fill="#FFFFFF" mask="url(#mask-2)" points="161.1519 46.2158 161.1519 47.4998 157.2989 47.4998 157.2989 49.9048 160.3359 49.9048 160.3359 51.1478 157.2989 51.1478 157.2989 53.6018 161.1519 53.6018 161.1519 54.8918 155.6789 54.8918 155.6789 46.2158"></polygon>
                    <path d="M168.6333,50.3437 L169.6413,50.3437 C169.9453,50.3437 170.2103,50.3057 170.4363,50.2297 C170.6623,50.1537 170.8483,50.0487 170.9943,49.9147 C171.1403,49.7807 171.2493,49.6217 171.3213,49.4377 C171.3933,49.2537 171.4293,49.0517 171.4293,48.8317 C171.4293,48.3917 171.2843,48.0537 170.9943,47.8177 C170.7043,47.5817 170.2613,47.4637 169.6653,47.4637 L168.6333,47.4637 L168.6333,50.3437 Z M168.6333,51.5017 L168.6333,54.8917 L167.0193,54.8917 L167.0193,46.2157 L169.6653,46.2157 C170.2533,46.2157 170.7583,46.2767 171.1803,46.3987 C171.6023,46.5207 171.9473,46.6917 172.2183,46.9107 C172.4873,47.1317 172.6873,47.3947 172.8153,47.6997 C172.9433,48.0067 173.0073,48.3437 173.0073,48.7117 C173.0073,49.0037 172.9643,49.2797 172.8783,49.5397 C172.7923,49.7997 172.6683,50.0347 172.5063,50.2477 C172.3443,50.4597 172.1443,50.6457 171.9053,50.8057 C171.6683,50.9657 171.3973,51.0937 171.0933,51.1897 C171.2973,51.3057 171.4733,51.4717 171.6213,51.6877 L173.7933,54.8917 L172.3353,54.8917 C172.0593,54.8917 171.8593,54.7827 171.7353,54.5677 L169.9113,51.7897 C169.8433,51.6857 169.7683,51.6117 169.6863,51.5677 C169.6043,51.5237 169.4833,51.5017 169.3223,51.5017 L168.6333,51.5017 Z" id="Fill-21" fill="#FFFFFF" mask="url(#mask-2)"></path>
                    <path d="M177.9146,46.2158 L179.2116,46.2158 C179.3516,46.2158 179.4656,46.2498 179.5536,46.3178 C179.6416,46.3858 179.7066,46.4738 179.7506,46.5818 L181.7976,51.8738 C181.8646,52.0458 181.9306,52.2348 181.9916,52.4408 C182.0546,52.6468 182.1126,52.8618 182.1696,53.0858 C182.2136,52.8618 182.2646,52.6468 182.3216,52.4408 C182.3806,52.2348 182.4426,52.0458 182.5116,51.8738 L184.5456,46.5818 C184.5766,46.4888 184.6406,46.4048 184.7336,46.3298 C184.8276,46.2538 184.9426,46.2158 185.0786,46.2158 L186.3816,46.2158 L182.8776,54.8918 L181.4196,54.8918 L177.9146,46.2158 Z" id="Fill-22" fill="#FFFFFF" mask="url(#mask-2)"></path>
                    <polygon id="Fill-23" fill="#FFFFFF" mask="url(#mask-2)" points="191.72 54.892 193.34 54.892 193.34 46.216 191.72 46.216"></polygon>
                    <path d="M205.6646,52.8457 C205.7526,52.8457 205.8306,52.8797 205.8986,52.9477 L206.5346,53.6377 C206.1836,54.0737 205.7496,54.4077 205.2356,54.6397 C204.7226,54.8717 204.1046,54.9877 203.3846,54.9877 C202.7406,54.9877 202.1616,54.8777 201.6476,54.6577 C201.1336,54.4377 200.6946,54.1317 200.3306,53.7397 C199.9666,53.3477 199.6876,52.8797 199.4936,52.3357 C199.2996,51.7917 199.2026,51.1977 199.2026,50.5537 C199.2026,49.9017 199.3076,49.3047 199.5156,48.7627 C199.7236,48.2207 200.0166,47.7537 200.3936,47.3617 C200.7716,46.9697 201.2236,46.6647 201.7466,46.4467 C202.2706,46.2287 202.8516,46.1187 203.4866,46.1187 C204.1186,46.1187 204.6806,46.2237 205.1696,46.4317 C205.6596,46.6397 206.0766,46.9107 206.4206,47.2477 L205.8806,47.9977 C205.8496,48.0457 205.8086,48.0877 205.7576,48.1237 C205.7076,48.1587 205.6386,48.1777 205.5506,48.1777 C205.4906,48.1777 205.4286,48.1597 205.3646,48.1267 C205.3006,48.0927 205.2306,48.0507 205.1546,48.0007 C205.0786,47.9497 204.9906,47.8957 204.8916,47.8357 C204.7906,47.7757 204.6746,47.7207 204.5426,47.6707 C204.4106,47.6207 204.2576,47.5787 204.0836,47.5447 C203.9096,47.5107 203.7086,47.4927 203.4806,47.4927 C203.0926,47.4927 202.7376,47.5627 202.4156,47.6997 C202.0936,47.8387 201.8166,48.0387 201.5846,48.3007 C201.3526,48.5627 201.1726,48.8827 201.0446,49.2607 C200.9166,49.6387 200.8526,50.0697 200.8526,50.5537 C200.8526,51.0417 200.9216,51.4757 201.0606,51.8557 C201.1976,52.2357 201.3846,52.5557 201.6206,52.8157 C201.8566,53.0747 202.1346,53.2747 202.4546,53.4127 C202.7746,53.5507 203.1186,53.6187 203.4866,53.6187 C203.7066,53.6187 203.9056,53.6077 204.0836,53.5837 C204.2616,53.5597 204.4256,53.5217 204.5756,53.4697 C204.7266,53.4177 204.8676,53.3507 205.0016,53.2687 C205.1356,53.1867 205.2686,53.0857 205.4006,52.9657 C205.4406,52.9297 205.4826,52.9007 205.5266,52.8787 C205.5706,52.8567 205.6166,52.8457 205.6646,52.8457" id="Fill-24" fill="#FFFFFF" mask="url(#mask-2)"></path>
                    <polygon id="Fill-25" fill="#FFFFFF" mask="url(#mask-2)" points="217.5571 46.2158 217.5571 47.4998 213.7041 47.4998 213.7041 49.9048 216.7411 49.9048 216.7411 51.1478 213.7041 51.1478 213.7041 53.6018 217.5571 53.6018 217.5571 54.8918 212.0841 54.8918 212.0841 46.2158"></polygon>
                    <path d="M227.9604,47.7939 C227.9124,47.8779 227.8614,47.9389 227.8074,47.9769 C227.7534,48.0149 227.6864,48.0329 227.6064,48.0329 C227.5224,48.0329 227.4314,48.0029 227.3334,47.9399 C227.2354,47.8789 227.1184,47.8099 226.9824,47.7329 C226.8464,47.6569 226.6874,47.5889 226.5054,47.5259 C226.3234,47.4649 226.1084,47.4339 225.8604,47.4339 C225.6364,47.4339 225.4404,47.4609 225.2724,47.5149 C225.1054,47.5679 224.9634,47.6439 224.8494,47.7389 C224.7354,47.8359 224.6504,47.9499 224.5944,48.0849 C224.5384,48.2189 224.5104,48.3649 224.5104,48.5249 C224.5104,48.7299 224.5674,48.8989 224.6814,49.0349 C224.7954,49.1719 224.9464,49.2879 225.1344,49.3839 C225.3224,49.4799 225.5364,49.5649 225.7764,49.6419 C226.0164,49.7179 226.2624,49.7989 226.5144,49.8849 C226.7664,49.9709 227.0124,50.0699 227.2524,50.1849 C227.4924,50.2989 227.7064,50.4419 227.8944,50.6159 C228.0824,50.7909 228.2334,51.0039 228.3474,51.2559 C228.4614,51.5079 228.5184,51.8139 228.5184,52.1739 C228.5184,52.5649 228.4514,52.9329 228.3174,53.2739 C228.1834,53.6159 227.9874,53.9149 227.7304,54.1689 C227.4714,54.4229 227.1564,54.6229 226.7844,54.7689 C226.4124,54.9149 225.9864,54.9869 225.5064,54.9869 C225.2314,54.9869 224.9584,54.9609 224.6904,54.9059 C224.4224,54.8529 224.1654,54.7749 223.9194,54.6759 C223.6734,54.5749 223.4424,54.4559 223.2264,54.3149 C223.0104,54.1759 222.8184,54.0199 222.6504,53.8479 L223.1244,53.0729 C223.1644,53.0179 223.2164,52.9709 223.2804,52.9329 C223.3444,52.8949 223.4124,52.8759 223.4844,52.8759 C223.5844,52.8759 223.6924,52.9169 223.8084,52.9989 C223.9244,53.0809 224.0624,53.1719 224.2224,53.2719 C224.3824,53.3719 224.5694,53.4629 224.7834,53.5449 C224.9974,53.6269 225.2544,53.6679 225.5544,53.6679 C226.0144,53.6679 226.3704,53.5589 226.6224,53.3409 C226.8744,53.1229 227.0004,52.8099 227.0004,52.4009 C227.0004,52.1739 226.9434,51.9869 226.8294,51.8439 C226.7154,51.6989 226.5644,51.5789 226.3764,51.4809 C226.1884,51.3829 225.9744,51.2999 225.7344,51.2319 C225.4944,51.1639 225.2504,51.0899 225.0024,51.0099 C224.7544,50.9299 224.5104,50.8339 224.2714,50.7219 C224.0304,50.6089 223.8164,50.4639 223.6284,50.2829 C223.4404,50.1039 223.2894,49.8789 223.1754,49.6079 C223.0614,49.3389 223.0044,49.0059 223.0044,48.6089 C223.0044,48.2939 223.0674,47.9849 223.1934,47.6859 C223.3194,47.3859 223.5024,47.1199 223.7424,46.8879 C223.9824,46.6549 224.2784,46.4699 224.6304,46.3299 C224.9824,46.1899 225.3864,46.1189 225.8424,46.1189 C226.3544,46.1189 226.8264,46.1989 227.2584,46.3589 C227.6904,46.5199 228.0584,46.7429 228.3624,47.0309 L227.9604,47.7939 Z" id="Fill-26" fill="#FFFFFF" mask="url(#mask-2)"></path>
                </g>
            </g>
        </g>
    </g>
</svg>