<svg width="39px" height="39px" viewBox="0 0 39 39" version="1.1" xmlns="http://www.w3.org/2000/svg" xmlns:xlink="http://www.w3.org/1999/xlink">
     <g id="Mockups" stroke="none" stroke-width="1" fill="none" fill-rule="evenodd">
        <g id="Services" transform="translate(-461.000000, -2838.000000)" fill="#ECECEC">
            <path d="M480.395307,2838.02437 C469.692158,2838.02437 461.024366,2846.69216 461.024366,2857.39531 C461.024366,2868.10164 469.692158,2876.76943 480.395307,2876.76943 C491.101642,2876.76943 499.769433,2868.10164 499.769433,2857.39531 C499.769433,2846.69216 491.101642,2838.02437 480.395307,2838.02437 Z M480.395307,2874.73089 C470.811795,2874.73089 463.062909,2866.98137 463.062909,2857.39531 C463.062909,2847.8118 470.811795,2840.06291 480.395307,2840.06291 C489.981367,2840.06291 497.73089,2847.8118 497.73089,2857.39531 C497.73089,2866.98137 489.981367,2874.73089 480.395307,2874.73089 Z M481.824645,2857.39531 L488.246789,2850.97316 C488.654625,2850.56533 488.654625,2849.95293 488.246789,2849.54446 C487.838315,2849.13854 487.228473,2849.13854 486.82,2849.54446 L480.395307,2855.96915 L473.973162,2849.54446 C473.565326,2849.13854 472.952935,2849.13854 472.544462,2849.54446 C472.138537,2849.95293 472.138537,2850.56533 472.544462,2850.97316 L478.969155,2857.39531 L472.544462,2863.82 C472.138537,2864.22847 472.138537,2864.83832 472.544462,2865.24679 C472.952935,2865.65462 473.565326,2865.65462 473.973162,2865.24679 L480.395307,2858.82464 L486.82,2865.24679 C487.228473,2865.65462 487.838315,2865.65462 488.246789,2865.24679 C488.654625,2864.83832 488.654625,2864.22847 488.246789,2863.82 L481.824645,2857.39531 Z" id="cancel-button" transform="translate(480.396900, 2857.396900) rotate(-315.000000) translate(-480.396900, -2857.396900) "></path>
        </g>
    </g>
</svg>