<?xml version="1.0" encoding="UTF-8"?>
<svg width="39px" height="39px" viewBox="0 0 39 39" version="1.1" xmlns="http://www.w3.org/2000/svg" xmlns:xlink="http://www.w3.org/1999/xlink">
    <!-- Generator: Sketch 43.2 (39069) - http://www.bohemiancoding.com/sketch -->
    <title>cancel-button</title>
    <desc>Created with Sketch.</desc>
    <defs></defs>
    <g id="Mockups" stroke="none" stroke-width="1" fill="none" fill-rule="evenodd">
        <g id="Services" transform="translate(-370.000000, -1418.000000)" fill="#000000">
            <path d="M389.395307,1418.02437 C378.692158,1418.02437 370.024366,1426.69216 370.024366,1437.39531 C370.024366,1448.10164 378.692158,1456.76943 389.395307,1456.76943 C400.101642,1456.76943 408.769433,1448.10164 408.769433,1437.39531 C408.769433,1426.69216 400.101642,1418.02437 389.395307,1418.02437 Z M389.395307,1454.73089 C379.811795,1454.73089 372.062909,1446.98137 372.062909,1437.39531 C372.062909,1427.8118 379.811795,1420.06291 389.395307,1420.06291 C398.981367,1420.06291 406.73089,1427.8118 406.73089,1437.39531 C406.73089,1446.98137 398.981367,1454.73089 389.395307,1454.73089 Z M390.824645,1437.39531 L397.246789,1430.97316 C397.654625,1430.56533 397.654625,1429.95293 397.246789,1429.54446 C396.838315,1429.13854 396.228473,1429.13854 395.82,1429.54446 L389.395307,1435.96915 L382.973162,1429.54446 C382.565326,1429.13854 381.952935,1429.13854 381.544462,1429.54446 C381.138537,1429.95293 381.138537,1430.56533 381.544462,1430.97316 L387.969155,1437.39531 L381.544462,1443.82 C381.138537,1444.22847 381.138537,1444.83832 381.544462,1445.24679 C381.952935,1445.65462 382.565326,1445.65462 382.973162,1445.24679 L389.395307,1438.82464 L395.82,1445.24679 C396.228473,1445.65462 396.838315,1445.65462 397.246789,1445.24679 C397.654625,1444.83832 397.654625,1444.22847 397.246789,1443.82 L390.824645,1437.39531 Z" id="cancel-button" transform="translate(389.396900, 1437.396900) rotate(-315.000000) translate(-389.396900, -1437.396900) "></path>
        </g>
    </g>
</svg>