<?xml version="1.0" encoding="UTF-8" standalone="no"?>
<svg width="52px" height="52px" viewBox="0 0 52 52" version="1.1" xmlns="http://www.w3.org/2000/svg" xmlns:xlink="http://www.w3.org/1999/xlink">
    <!-- Generator: sketchtool 44.1 (41455) - http://www.bohemiancoding.com/sketch -->
    <title>Facebook</title>
    <desc>Created with sketchtool.</desc>
    <defs>
        <polygon id="path-1" points="17.8728588 0.174658824 0.0183529412 0.174658824 0.0183529412 25.6944235 35.7273647 25.6944235 35.7273647 0.174658824 17.8728588 0.174658824"></polygon>
        <polygon id="path-3" points="26.5 11 20 11 20 37 33 37 33 11"></polygon>
    </defs>
    <g id="Footer" stroke="none" stroke-width="1" fill="none" fill-rule="evenodd">
        <g id="Footer---Mockups" transform="translate(-191.000000, -359.000000)">
            <g id="Social-Media-Links" transform="translate(121.000000, 359.000000)">
                <g id="Facebook" transform="translate(70.000000, 0.000000)">
                    <g id="youtube-logo" transform="translate(39.000000, 12.000000)">
                        <mask id="mask-2" fill="white">
                            <use xlink:href="#path-1"></use>
                        </mask>
                        <g id="Clip-2"></g>
                    </g>
                    <circle id="Oval-2-Copy" stroke="#FFFFFF" stroke-width="2" cx="26" cy="26" r="25"></circle>
                    <mask id="mask-4" fill="white">
                        <use xlink:href="#path-3"></use>
                    </mask>
                    <g id="Clip-2"></g>
                    <path d="M28.6501328,19.5190943 L28.6501328,17.2791256 C28.6501328,16.9424284 28.6662338,16.6824622 28.6997343,16.498017 C28.7342736,16.3138138 28.8103638,16.1322733 28.9290437,15.9533953 C29.0477237,15.7747593 29.2393775,15.6517959 29.504265,15.5828104 C29.7699315,15.5147932 30.122076,15.4806636 30.5622565,15.4806636 L32.9664995,15.4806636 L32.9664995,11 L29.1238139,11 C26.9000579,11 25.3034619,11.4916119 24.3337662,12.4748357 C23.3627719,13.4583015 22.877924,14.9067533 22.877924,16.8214013 L22.877924,19.5190943 L20,19.5190943 L20,24 L22.877924,24 L22.877924,37 L28.6501328,37 L28.6501328,24 L32.4917797,24 L33,19.5190943 L28.6501328,19.5190943 Z" id="Fill-1" fill="#F0F3F2" mask="url(#mask-4)"></path>
                </g>
            </g>
        </g>
    </g>
</svg>