<?xml version="1.0" encoding="UTF-8"?>
<svg width="65px" height="65px" viewBox="0 0 65 65" version="1.1" xmlns="http://www.w3.org/2000/svg" xmlns:xlink="http://www.w3.org/1999/xlink">
    <!-- Generator: Sketch 43.2 (39069) - http://www.bohemiancoding.com/sketch -->
    <title>next&gt;</title>
    <desc>Created with Sketch.</desc>
    <defs>
        <polygon id="path-1" points="0.00994897959 0.0530612245 0.00994897959 65 64.9469388 65 64.9469388 0.0530612245 0.00994897959 0.0530612245"></polygon>
    </defs>
    <g id="Mockups" stroke="none" stroke-width="1" fill="none" fill-rule="evenodd">
        <g id="Sticky-Header" transform="translate(-1253.000000, -3564.000000)">
            <g id="Group" transform="translate(-92.000000, 3324.000000)">
                <g id="next-copy-2" transform="translate(349.000000, 85.000000)">
                    <g id="next&gt;" transform="translate(996.000000, 155.000000)">
                        <mask id="mask-2" fill="white">
                            <use xlink:href="#path-1"></use>
                        </mask>
                        <g id="Clip-2"></g>
                        <path d="M32.4734694,65 C50.3816327,65 64.9469388,50.4346939 64.9469388,32.5265306 C64.9469388,14.6183673 50.3816327,0.0530612245 32.4734694,0.0530612245 C14.5653061,0.0530612245 0,14.6183673 0,32.5265306 C0,50.4346939 14.5653061,65 32.4734694,65 Z M32.4734694,2.67959184 C48.9358801,2.67959184 62.3204082,16.0641199 62.3204082,32.5265306 C62.3204082,48.9889413 48.9358801,62.3734694 32.4734694,62.3734694 C16.0110587,62.3734694 2.62653061,48.9889413 2.62653061,32.5265306 C2.62653061,16.0641199 16.0110587,2.67959184 32.4734694,2.67959184 Z" id="Fill-1" fill="#FFFFFF" mask="url(#mask-2)"></path>
                        <path d="M36.4041042,42.6211929 C36.6665151,42.8692136 37.0259489,43 37.3712264,43 C37.7165039,43 38.0752473,42.8692136 38.3374855,42.6211929 L48.5994781,32.9162194 C48.8617164,32.6681986 49,32.3416408 49,32.001694 C49,31.6624004 48.8617164,31.3358425 48.5994781,31.0870054 L38.3374855,21.3821952 C37.79868,20.8726016 36.9429097,20.8726016 36.4041042,21.3821952 C35.8652986,21.8917887 35.8652986,22.7011624 36.4041042,23.210756 L45.6989745,32.001694 L36.4041042,40.792632 C35.879455,41.3022256 35.879455,42.1249882 36.4041042,42.6211929 Z" id="Fill-4" fill="#FFFFFF" mask="url(#mask-2)"></path>
                        <path d="M45.6060606,33 L20.3816318,33" id="Line" stroke="#FFFFFF" stroke-width="3" stroke-linecap="square" mask="url(#mask-2)"></path>
                    </g>
                </g>
            </g>
        </g>
    </g>
</svg>