<?xml version="1.0" encoding="UTF-8"?>
<svg width="298px" height="56px" viewBox="0 0 298 56" version="1.1" xmlns="http://www.w3.org/2000/svg" xmlns:xlink="http://www.w3.org/1999/xlink">
    <!-- Generator: Sketch 45.2 (43514) - http://www.bohemiancoding.com/sketch -->
    <title>Logo Italian White</title>
    <desc>Created with Sketch.</desc>
    <defs></defs>
    <g id="Logo" stroke="none" stroke-width="1" fill="none" fill-rule="evenodd">
        <g transform="translate(-734.000000, -827.000000)" id="Logo-Italian-White" fill="#FFFFFF">
            <g transform="translate(734.000000, 827.000000)">
                <path d="M82.7007757,50.9752674 C81.8422237,50.6905066 81.2174366,50.3405769 80.8263957,49.9254679 C80.4353547,49.5103589 80.2398372,48.9979977 80.2398372,48.388369 C80.2398372,47.698526 80.4788031,47.1280103 80.956742,46.6768048 C81.4346809,46.2255993 82.0559921,46 82.8206943,46 C83.3420822,46 83.8069794,46.116309 84.2153999,46.3489305 C84.6238204,46.581552 84.9401243,46.9024044 85.1643211,47.3114973 C85.3885179,47.7205903 85.5006146,48.1677783 85.5006146,48.6530749 L84.494341,48.6530749 C84.494341,48.1236605 84.3483546,47.707555 84.0563774,47.404746 C83.7644002,47.101937 83.3525099,46.9505348 82.8206943,46.9505348 C82.3271138,46.9505348 81.9421615,47.0758677 81.6658259,47.3265374 C81.3894904,47.5772071 81.2513246,47.9251315 81.2513246,48.3703209 C81.2513246,48.7272745 81.3825386,49.0290763 81.6449705,49.2757353 C81.9074024,49.5223943 82.3540513,49.7479936 82.9849307,49.9525401 C83.61581,50.1570866 84.1093831,50.3826859 84.4656648,50.6293449 C84.8219466,50.8760039 85.0861125,51.1637684 85.2581705,51.4926471 C85.4302285,51.8215257 85.5162562,52.2085539 85.5162562,52.6537433 C85.5162562,53.3636399 85.2764213,53.9321503 84.7967445,54.3592914 C84.3170676,54.7864326 83.6757702,55 82.8728328,55 C82.351445,55 81.8648236,54.8846937 81.4129541,54.6540775 C80.9610846,54.4234614 80.6126289,54.1076223 80.3675766,53.7065508 C80.1225243,53.3054793 80,52.8502699 80,52.3409091 L81.0062736,52.3409091 C81.0062736,52.8703235 81.1757221,53.2884343 81.5146242,53.595254 C81.8535263,53.9020737 82.306258,54.0554813 82.8728328,54.0554813 C83.4011726,54.0554813 83.8061111,53.931151 84.0876605,53.6824866 C84.36921,53.4338223 84.5099826,53.0949219 84.5099826,52.6657754 C84.5099826,52.2366289 84.3796376,51.9047472 84.1189436,51.6701203 C83.8582497,51.4354935 83.3855318,51.2038781 82.7007757,50.9752674 Z M93.1780014,50.8308824 L89.8880603,50.8308824 L89.8880603,53.9351604 L93.7098143,53.9351604 L93.7098143,54.8796791 L88.8870006,54.8796791 L88.8870006,46.1203209 L93.6576758,46.1203209 L93.6576758,47.0708556 L89.8880603,47.0708556 L89.8880603,49.8863636 L93.1780014,49.8863636 L93.1780014,50.8308824 Z M99.8282591,51.3362299 L98.0451215,51.3362299 L98.0451215,54.8796791 L97.0388479,54.8796791 L97.0388479,46.1203209 L99.5519249,46.1203209 C100.407001,46.1203209 101.064809,46.3449175 101.525368,46.7941176 C101.985927,47.2433178 102.216204,47.8970545 102.216204,48.7553476 C102.216204,49.3008049 102.088466,49.7760675 101.832985,50.1811497 C101.577505,50.586232 101.222098,50.8890364 100.766753,51.0895722 L102.54989,54.8074866 L102.54989,54.8796791 L101.475837,54.8796791 L99.8282591,51.3362299 Z M98.0451215,50.3917112 L99.583208,50.3917112 C100.080264,50.3917112 100.475644,50.243317 100.76936,49.9465241 C101.063075,49.6497311 101.20993,49.2526763 101.20993,48.7553476 C101.20993,48.213901 101.070026,47.7987982 100.790215,47.5100267 C100.510403,47.2212552 100.106334,47.0748663 99.5779942,47.0708556 L98.0451215,47.0708556 L98.0451215,50.3917112 Z M108.12088,53.3455882 L110.289843,46.1203209 L111.384752,46.1203209 L108.569272,54.8796791 L107.682917,54.8796791 L104.87265,46.1203209 L105.962345,46.1203209 L108.12088,53.3455882 Z M115.563644,54.8796791 L114.562584,54.8796791 L114.562584,46.1203209 L115.563644,46.1203209 L115.563644,54.8796791 Z M120.232638,53.9351604 L124.575777,53.9351604 L124.575777,54.8796791 L119.049093,54.8796791 L119.049093,54.013369 L123.209747,47.0708556 L119.116873,47.0708556 L119.116873,46.1203209 L124.408934,46.1203209 L124.408934,46.9685829 L120.232638,53.9351604 Z M129.036217,54.8796791 L128.035157,54.8796791 L128.035157,46.1203209 L129.036217,46.1203209 L129.036217,54.8796791 Z M138.692249,53.9351604 L142.289807,53.9351604 L142.289807,54.8796791 L137.685975,54.8796791 L137.685975,46.1203209 L138.692249,46.1203209 L138.692249,53.9351604 Z M149.810779,50.8308824 L146.520838,50.8308824 L146.520838,53.9351604 L150.342592,53.9351604 L150.342592,54.8796791 L145.519778,54.8796791 L145.519778,46.1203209 L150.290453,46.1203209 L150.290453,47.0708556 L146.520838,47.0708556 L146.520838,49.8863636 L149.810779,49.8863636 L149.810779,50.8308824 Z M159.281731,53.730615 C159.024513,54.1557508 158.665629,54.4735952 158.20507,54.6841578 C157.744511,54.8947203 157.208358,55 156.596596,55 C155.977883,55 155.428696,54.8325552 154.949019,54.4976604 C154.469342,54.1627657 154.098293,53.6865004 153.835861,53.0688503 C153.57343,52.4512001 153.43874,51.7352982 153.431788,50.921123 L153.431788,50.1570856 C153.431788,48.8375602 153.698561,47.8148432 154.232114,47.0889037 C154.765668,46.3629643 155.515586,46 156.481892,46 C157.274401,46 157.912223,46.2336207 158.395376,46.700869 C158.878528,47.1681173 159.173977,47.8308781 159.281731,48.6891711 L158.280671,48.6891711 C158.092971,47.5300744 157.495122,46.9505348 156.487106,46.9505348 C155.816253,46.9505348 155.307908,47.2222566 154.962054,47.7657086 C154.6162,48.3091605 154.441537,49.0962515 154.438061,50.1270053 L154.438061,50.8429144 C154.438061,51.8255397 154.63271,52.6066147 155.022013,53.1861631 C155.411316,53.7657115 155.93791,54.0554813 156.60181,54.0554813 C156.97721,54.0554813 157.305679,54.0073534 157.587229,53.9110963 C157.868778,53.8148391 158.101661,53.6524076 158.285885,53.4237968 L158.285885,51.4565508 L156.528816,51.4565508 L156.528816,50.5180481 L159.281731,50.5180481 L159.281731,53.730615 Z M167.230238,52.5935829 L164.049788,52.5935829 L163.33549,54.8796791 L162.303147,54.8796791 L165.202049,46.1203209 L166.077976,46.1203209 L168.982092,54.8796791 L167.954963,54.8796791 L167.230238,52.5935829 Z M164.352191,51.6430481 L166.933048,51.6430481 L165.640013,47.546123 L164.352191,51.6430481 Z M173.098418,53.9351604 L176.695976,53.9351604 L176.695976,54.8796791 L172.092144,54.8796791 L172.092144,46.1203209 L173.098418,46.1203209 L173.098418,53.9351604 Z M181,54.8796791 L179.99894,54.8796791 L179.99894,46.1203209 L181,46.1203209 L181,54.8796791 Z" id="servizi-legali-copy-2"></path>
                <polygon id="Fill-1" points="90.8589555 30 85.1420462 30 73 1 79.1757046 1 87.9789635 23.4813879 96.8252972 1 103 1"></polygon>
                <polygon id="Fill-2" points="136 30 114 30 114 1 136 1 136 6.30328909 119.499496 6.30328909 119.499496 12.9721851 135.411344 12.9721851 135.411344 18.0675995 119.499496 18.0675995 119.499496 24.6141578 136 24.6141578"></polygon>
                <path d="M154.16433,6.4893 L154.16433,15.8203 L162.564519,15.8203 C166.0753,15.8203 167.579347,13.4863 167.579347,11.1553 C167.579347,8.8223 166.034162,6.4893 162.564519,6.4893 L154.16433,6.4893 Z M174.559771,30.5233 L167.997751,30.5233 L159.472141,20.7763 L154.16433,20.7763 L154.16433,30.5233 L148.647818,30.5233 L148.647818,1.3243 C153.286384,1.3243 157.925953,1.3663 162.564519,1.3663 C169.46066,1.4083 173.096862,5.9893 173.096862,11.0303 C173.096862,15.0283 171.25769,19.0683 165.699037,20.1933 L174.559771,30.1483 L174.559771,30.5233 Z" id="Fill-3"></path>
                <polygon id="Fill-5" points="185.006828 30.523 190.482202 30.523 190.482202 1.366 185.006828 1.366"></polygon>
                <polygon id="Fill-7" points="212.71531 6.3643 203.438178 6.3643 203.438178 1.3663 227.51096 1.3663 227.51096 6.3643 218.231822 6.3643 218.231822 30.5233 212.71531 30.5233"></polygon>
                <path d="M249.067698,7.4883 L243.634465,19.9013 L254.50093,19.9013 L249.067698,7.4883 Z M256.716364,25.0253 L241.420034,25.0253 L238.91262,30.5233 L232.935563,30.5233 L246.0586,1.3663 L252.076795,1.3663 L265.199832,30.5233 L259.18264,30.5233 L256.716364,25.0253 Z" id="Fill-8"></path>
                <path d="M292.586835,8.4053 C291.584471,6.7393 288.826215,5.1573 285.649556,5.1573 C281.554815,5.1573 279.589219,6.8643 279.589219,9.0303 C279.589219,11.5713 282.598316,12.2793 286.110101,12.6953 C292.211576,13.4453 297.894646,15.0283 297.894646,21.9843 C297.894646,28.4823 292.128296,31.2733 285.608418,31.2733 C279.63136,31.2733 275.033933,29.4393 272.861643,24.1083 L277.458067,21.7353 C278.754418,24.9413 282.138774,26.3583 285.691697,26.3583 C289.160337,26.3583 292.420276,25.1503 292.420276,21.9843 C292.420276,19.2353 289.536599,18.1103 285.649556,17.6943 C279.673502,16.9863 274.155987,15.4033 274.155987,8.8633 C274.155987,2.8653 280.090902,0.4093 285.482997,0.3673 C290.037279,0.3673 294.761131,1.6583 296.975562,6.1563 L292.586835,8.4053 Z" id="Fill-9"></path>
                <polygon id="Fill-10" points="20.5611973 49.4414 27.3660323 33.4184 13.7543556 33.4184"></polygon>
                <polygon id="Fill-11" points="29.2951057 28.9775 34.1925401 17.3915 6.97420337 17.3915 11.8304997 28.9775"></polygon>
                <polygon id="Fill-12" points="36.0501737 12.9512 41.0168404 1.3662 0.000200673401 1.3662 5.00098182 12.9512"></polygon>
                <polygon id="Fill-13" points="23.0069044 55.0439 45.8595912 1.3659 58.5070323 1.3659 35.6252478 55.0439"></polygon>
            </g>
        </g>
    </g>
</svg>