<?xml version="1.0" encoding="UTF-8"?>
<svg width="246px" height="46px" viewBox="0 0 246 46" version="1.1" xmlns="http://www.w3.org/2000/svg" xmlns:xlink="http://www.w3.org/1999/xlink">
    <!-- Generator: Sketch 45.2 (43514) - http://www.bohemiancoding.com/sketch -->
    <title>Group 2</title>
    <desc>Created with Sketch.</desc>
    <defs></defs>
    <g id="Header" stroke="none" stroke-width="1" fill="none" fill-rule="evenodd">
        <g id="Group-2">
            <polygon id="Fill-1" fill="#CA3F39" points="74.8824629 25 70.1183718 25 60 1 65.1464205 1 72.4824696 19.6052865 79.8544143 1 85 1"></polygon>
            <polygon id="Fill-2" fill="#CA3F39" points="112 25 94 25 94 1 112 1 112 5.3889289 98.4995876 5.3889289 98.4995876 10.9080152 111.518373 10.9080152 111.518373 15.12491 98.4995876 15.12491 98.4995876 20.5427513 112 20.5427513"></polygon>
            <path d="M127.263172,5.35082632 L127.263172,13.0448088 L134.197556,13.0448088 C137.095717,13.0448088 138.337313,11.1202825 138.337313,9.19822982 C138.337313,7.27452807 137.061758,5.35082632 134.197556,5.35082632 L127.263172,5.35082632 Z M144.099677,25.1683351 L138.682707,25.1683351 L131.644788,17.1313351 L127.263172,17.1313351 L127.263172,25.1683351 L122.709273,25.1683351 L122.709273,1.09196667 C126.538424,1.09196667 130.368404,1.12659825 134.197556,1.12659825 C139.890343,1.16122982 142.89204,4.93854561 142.89204,9.09515965 C142.89204,12.3917561 141.373798,15.7229842 136.785111,16.6506158 L144.099677,24.8591246 L144.099677,25.1683351 Z" id="Fill-3" fill="#CA3F39"></path>
            <polygon id="Fill-5" fill="#CA3F39" points="152.723758 25.1680877 157.243697 25.1680877 157.243697 1.12635088 152.723758 1.12635088"></polygon>
            <polygon id="Fill-7" fill="#CA3F39" points="175.597202 5.24775614 167.938899 5.24775614 167.938899 1.12659825 187.811061 1.12659825 187.811061 5.24775614 180.151101 5.24775614 180.151101 25.1683351 175.597202 25.1683351"></polygon>
            <path d="M205.60622,6.17456316 L201.121069,16.4098439 L210.091372,16.4098439 L205.60622,6.17456316 Z M211.92022,20.6348965 L199.293048,20.6348965 L197.22317,25.1683351 L192.289089,25.1683351 L203.1222,1.12659825 L208.09024,1.12659825 L218.923352,25.1683351 L213.956139,25.1683351 L211.92022,20.6348965 Z" id="Fill-8" fill="#CA3F39"></path>
            <path d="M241.531414,6.93068596 C240.70396,5.55696667 238.42701,4.25251053 235.804667,4.25251053 C232.424444,4.25251053 230.801838,5.66003684 230.801838,7.44603684 C230.801838,9.54124737 233.285859,10.1250368 236.184848,10.4680544 C241.221636,11.0864754 245.91303,12.3917561 245.91303,18.1274053 C245.91303,23.4854053 241.152889,25.7867561 235.770707,25.7867561 C230.836626,25.7867561 227.041434,24.2745105 225.248202,19.8787737 L229.042566,17.9220895 C230.112707,20.5656333 232.906505,21.7340368 235.839455,21.7340368 C238.702828,21.7340368 241.393919,20.7379667 241.393919,18.1274053 C241.393919,15.860686 239.013434,14.9330544 235.804667,14.5900368 C230.871414,14.0062474 226.316687,12.7009667 226.316687,7.30833509 C226.316687,2.36261579 231.21598,0.337492982 235.667172,0.302861404 C239.426747,0.302861404 243.326303,1.36737018 245.154323,5.07624737 L241.531414,6.93068596 Z" id="Fill-9" fill="#CA3F39"></path>
            <polygon id="Fill-10" fill="#ABABAB" points="16.9733374 40.7674702 22.5907515 27.5555228 11.3542667 27.5555228"></polygon>
            <polygon id="Fill-11" fill="#ABABAB" points="24.1832081 23.8937281 28.2260566 14.3403596 5.75722828 14.3403596 9.76611717 23.8937281"></polygon>
            <polygon id="Fill-12" fill="#ABABAB" points="29.7595394 10.6790596 33.8595394 1.12651579 0.000165656566 1.12651579 4.12832727 10.6790596"></polygon>
            <polygon id="Fill-13" fill="#CA3F39" points="18.9922768 45.3870754 37.8572465 1.12626842 48.2977515 1.12626842 29.4087616 45.3870754"></polygon>
            <g id="Group" transform="translate(66.000000, 38.000000)" fill="#ABABAB">
                <path d="M2.62055464,4.42245989 C1.78750415,4.1693392 1.18127508,3.85829061 0.801849248,3.48930481 C0.422423417,3.12031901 0.232713346,2.66488684 0.232713346,2.12299465 C0.232713346,1.50980086 0.46458121,1.0026758 0.928323893,0.601604278 C1.39206658,0.200532754 1.99492302,0 2.73691131,0 C3.24281242,0 3.69390081,0.103385775 4.09019001,0.310160428 C4.48647921,0.51693508 4.79338795,0.802137219 5.01092543,1.1657754 C5.2284629,1.52941358 5.33723001,1.92691406 5.33723001,2.35828877 L4.36084575,2.35828877 C4.36084575,1.88769818 4.21919557,1.51782666 3.93589095,1.2486631 C3.65258633,0.979499545 3.25293044,0.844919786 2.73691131,0.844919786 C2.2579916,0.844919786 1.88447355,0.956326872 1.61634596,1.17914439 C1.34821837,1.4019619 1.21415659,1.71122797 1.21415659,2.10695187 C1.21415659,2.42424401 1.34147313,2.69251227 1.59611002,2.91176471 C1.85074691,3.13101714 2.28412902,3.33154989 2.89626937,3.51336898 C3.50840971,3.69518807 3.98732224,3.89572083 4.33302133,4.11497326 C4.67872042,4.3342257 4.93503981,4.59001636 5.10198717,4.88235294 C5.26893454,5.17468952 5.35240697,5.5187146 5.35240697,5.9144385 C5.35240697,6.5454577 5.11969595,7.05080024 4.65426693,7.43048128 C4.18883791,7.81016233 3.56658888,8 2.78750117,8 C2.28160006,8 1.80943278,7.89750548 1.37098515,7.69251337 C0.932537522,7.48752126 0.594432019,7.2067754 0.356658498,6.85026738 C0.118884977,6.49375936 0,6.08912882 0,5.63636364 L0.976384258,5.63636364 C0.976384258,6.10695422 1.14079965,6.47860826 1.46963537,6.7513369 C1.79847109,7.02406553 2.2377553,7.16042781 2.78750117,7.16042781 C3.30014763,7.16042781 3.69305826,7.04991198 3.96624486,6.82887701 C4.23943146,6.60784203 4.37602271,6.30659727 4.37602271,5.92513369 C4.37602271,5.54367011 4.24954933,5.24866414 3.99659878,5.04010695 C3.74364822,4.83154976 3.28497143,4.62566947 2.62055464,4.42245989 Z M12.7865756,4.29411765 L9.59435553,4.29411765 L9.59435553,7.05347594 L13.3025921,7.05347594 L13.3025921,7.89304813 L8.62303026,7.89304813 L8.62303026,0.106951872 L13.2520023,0.106951872 L13.2520023,0.951871658 L9.59435553,0.951871658 L9.59435553,3.45454545 L12.7865756,3.45454545 L12.7865756,4.29411765 Z M19.2393009,4.74331551 L17.5091278,4.74331551 L17.5091278,7.89304813 L16.5327435,7.89304813 L16.5327435,0.106951872 L18.9711747,0.106951872 C19.8008525,0.106951872 20.4391215,0.306593369 20.8860008,0.705882353 C21.3328801,1.10517134 21.5563164,1.6862707 21.5563164,2.44919786 C21.5563164,2.93404877 21.4323725,3.35650444 21.184481,3.71657754 C20.9365894,4.07665064 20.5917387,4.34581016 20.1499184,4.52406417 L21.8800915,7.82887701 L21.8800915,7.89304813 L20.8379404,7.89304813 L19.2393009,4.74331551 Z M17.5091278,3.90374332 L19.0015286,3.90374332 C19.483821,3.90374332 19.8674569,3.77183733 20.1524479,3.50802139 C20.4374388,3.24420545 20.5799322,2.89126781 20.5799322,2.44919786 C20.5799322,1.96791203 20.4441841,1.59893176 20.1726838,1.34224599 C19.9011835,1.08556021 19.5091161,0.955436738 18.9964696,0.951871658 L17.5091278,0.951871658 L17.5091278,3.90374332 Z M27.2856068,6.52941176 L29.3901449,0.106951872 L30.4525319,0.106951872 L27.7206796,7.89304813 L26.860652,7.89304813 L24.1338587,0.106951872 L25.1911867,0.106951872 L27.2856068,6.52941176 Z M34.507298,7.89304813 L33.5359727,7.89304813 L33.5359727,0.106951872 L34.507298,0.106951872 L34.507298,7.89304813 Z M39.0376088,7.05347594 L43.2517439,7.05347594 L43.2517439,7.89304813 L37.889219,7.89304813 L37.889219,7.12299465 L41.9262896,0.951871658 L37.9549858,0.951871658 L37.9549858,0.106951872 L43.0898564,0.106951872 L43.0898564,0.860962567 L39.0376088,7.05347594 Z M47.5796952,7.89304813 L46.60837,7.89304813 L46.60837,0.106951872 L47.5796952,0.106951872 L47.5796952,7.89304813 Z M56.9489149,7.05347594 L60.4396151,7.05347594 L60.4396151,7.89304813 L55.9725306,7.89304813 L55.9725306,0.106951872 L56.9489149,0.106951872 L56.9489149,7.05347594 Z M67.7371911,4.29411765 L64.544971,4.29411765 L64.544971,7.05347594 L68.2532076,7.05347594 L68.2532076,7.89304813 L63.5736458,7.89304813 L63.5736458,0.106951872 L68.2026178,0.106951872 L68.2026178,0.951871658 L64.544971,0.951871658 L64.544971,3.45454545 L67.7371911,3.45454545 L67.7371911,4.29411765 Z M76.9268277,6.87165775 C76.6772499,7.24955626 76.3290265,7.53208463 75.8821472,7.71925134 C75.4352679,7.90641805 74.9150407,8 74.3214501,8 C73.7211141,8 73.1882396,7.85116013 72.7228106,7.55347594 C72.2573815,7.25579174 71.897354,6.83244481 71.6427171,6.28342246 C71.3880802,5.73440011 71.257391,5.09804283 71.2506457,4.37433155 L71.2506457,3.69518717 C71.2506457,2.52227578 71.5094945,1.61319396 72.0272,0.967914439 C72.5449055,0.32263492 73.272549,0 74.2101524,0 C74.9791221,0 75.5979985,0.207662807 76.0668002,0.622994652 C76.5356019,1.0383265 76.8222748,1.62744717 76.9268277,2.39037433 L75.9555025,2.39037433 C75.7733781,1.36006615 75.1932868,0.844919786 74.2152114,0.844919786 C73.5642853,0.844919786 73.0710391,1.08645035 72.735458,1.56951872 C72.3998769,2.05258709 72.2304026,2.75222358 72.2270299,3.6684492 L72.2270299,4.30481283 C72.2270299,5.17825749 72.4158969,5.87254644 72.7936364,6.38770053 C73.1713758,6.90285463 73.6823283,7.16042781 74.326509,7.16042781 C74.6907578,7.16042781 75.0094708,7.11764749 75.2826574,7.03208556 C75.555844,6.94652364 75.7818097,6.80214005 75.9605615,6.59893048 L75.9605615,4.85026738 L74.2556832,4.85026738 L74.2556832,4.01604278 L76.9268277,4.01604278 L76.9268277,6.87165775 Z M84.6392406,5.86096257 L81.5532592,5.86096257 L80.8601782,7.89304813 L79.858499,7.89304813 L82.6712951,0.106951872 L83.5212047,0.106951872 L86.3390598,7.89304813 L85.3424396,7.89304813 L84.6392406,5.86096257 Z M81.8466804,5.01604278 L84.3508784,5.01604278 L83.0962499,1.37433155 L81.8466804,5.01604278 Z M90.3331181,7.05347594 L93.8238182,7.05347594 L93.8238182,7.89304813 L89.3567338,7.89304813 L89.3567338,0.106951872 L90.3331181,0.106951872 L90.3331181,7.05347594 Z M98,7.89304813 L97.0286747,7.89304813 L97.0286747,0.106951872 L98,0.106951872 L98,7.89304813 Z" id="servizi-legali-copy-2"></path>
            </g>
        </g>
    </g>
</svg>