<?xml version="1.0" encoding="UTF-8"?>
<svg width="246px" height="47px" viewBox="0 0 246 47" version="1.1" xmlns="http://www.w3.org/2000/svg" xmlns:xlink="http://www.w3.org/1999/xlink">
    <!-- Generator: Sketch 45.2 (43514) - http://www.bohemiancoding.com/sketch -->
    <title>Logo Russian</title>
    <desc>Created with Sketch.</desc>
    <defs>
        <polygon id="path-1" points="0 47 245.91303 47 245.91303 0.302614035 0 0.302614035"></polygon>
    </defs>
    <g id="Header" stroke="none" stroke-width="1" fill="none" fill-rule="evenodd">
        <g id="Logo-Russian">
            <polygon id="Fill-1" fill="#CA3F39" points="74.8824629 25 70.1183718 25 60 1 65.1464205 1 72.4824696 19.6052865 79.8544143 1 85 1"></polygon>
            <polygon id="Fill-2" fill="#CA3F39" points="112 25 94 25 94 1 112 1 112 5.3889289 98.4995876 5.3889289 98.4995876 10.9080152 111.518373 10.9080152 111.518373 15.12491 98.4995876 15.12491 98.4995876 20.5427513 112 20.5427513"></polygon>
            <g id="Group-31">
                <path d="M127.263172,5.35082632 L127.263172,13.0448088 L134.197556,13.0448088 C137.095717,13.0448088 138.337313,11.1202825 138.337313,9.19822982 C138.337313,7.27452807 137.061758,5.35082632 134.197556,5.35082632 L127.263172,5.35082632 Z M144.099677,25.1683351 L138.682707,25.1683351 L131.644788,17.1313351 L127.263172,17.1313351 L127.263172,25.1683351 L122.709273,25.1683351 L122.709273,1.09196667 C126.538424,1.09196667 130.368404,1.12659825 134.197556,1.12659825 C139.890343,1.16122982 142.89204,4.93854561 142.89204,9.09515965 C142.89204,12.3917561 141.373798,15.7229842 136.785111,16.6506158 L144.099677,24.8591246 L144.099677,25.1683351 Z" id="Fill-3" fill="#CA3F39"></path>
                <mask id="mask-2" fill="white">
                    <use xlink:href="#path-1"></use>
                </mask>
                <g id="Clip-6"></g>
                <polygon id="Fill-5" fill="#CA3F39" mask="url(#mask-2)" points="152.723758 25.1680877 157.243697 25.1680877 157.243697 1.12635088 152.723758 1.12635088"></polygon>
                <polygon id="Fill-7" fill="#CA3F39" mask="url(#mask-2)" points="175.597202 5.24775614 167.938899 5.24775614 167.938899 1.12659825 187.811061 1.12659825 187.811061 5.24775614 180.151101 5.24775614 180.151101 25.1683351 175.597202 25.1683351"></polygon>
                <path d="M205.60622,6.17456316 L201.121069,16.4098439 L210.091372,16.4098439 L205.60622,6.17456316 Z M211.92022,20.6348965 L199.293048,20.6348965 L197.22317,25.1683351 L192.289089,25.1683351 L203.1222,1.12659825 L208.09024,1.12659825 L218.923352,25.1683351 L213.956139,25.1683351 L211.92022,20.6348965 Z" id="Fill-8" fill="#CA3F39" mask="url(#mask-2)"></path>
                <path d="M241.531414,6.93068596 C240.70396,5.55696667 238.42701,4.25251053 235.804667,4.25251053 C232.424444,4.25251053 230.801838,5.66003684 230.801838,7.44603684 C230.801838,9.54124737 233.285859,10.1250368 236.184848,10.4680544 C241.221636,11.0864754 245.91303,12.3917561 245.91303,18.1274053 C245.91303,23.4854053 241.152889,25.7867561 235.770707,25.7867561 C230.836626,25.7867561 227.041434,24.2745105 225.248202,19.8787737 L229.042566,17.9220895 C230.112707,20.5656333 232.906505,21.7340368 235.839455,21.7340368 C238.702828,21.7340368 241.393919,20.7379667 241.393919,18.1274053 C241.393919,15.860686 239.013434,14.9330544 235.804667,14.5900368 C230.871414,14.0062474 226.316687,12.7009667 226.316687,7.30833509 C226.316687,2.36261579 231.21598,0.337492982 235.667172,0.302861404 C239.426747,0.302861404 243.326303,1.36737018 245.154323,5.07624737 L241.531414,6.93068596 Z" id="Fill-9" fill="#CA3F39" mask="url(#mask-2)"></path>
                <polygon id="Fill-10" fill="#ABABAB" mask="url(#mask-2)" points="16.9733374 40.7674702 22.5907515 27.5555228 11.3542667 27.5555228"></polygon>
                <polygon id="Fill-11" fill="#ABABAB" mask="url(#mask-2)" points="24.1832081 23.8937281 28.2260566 14.3403596 5.75722828 14.3403596 9.76611717 23.8937281"></polygon>
                <polygon id="Fill-12" fill="#ABABAB" mask="url(#mask-2)" points="29.7595394 10.6790596 33.8595394 1.12651579 0.000165656566 1.12651579 4.12832727 10.6790596"></polygon>
                <polygon id="Fill-13" fill="#CA3F39" mask="url(#mask-2)" points="18.9922768 45.3870754 37.8572465 1.12626842 48.2977515 1.12626842 29.4087616 45.3870754"></polygon>
                <path d="M71.7253172,44.2735053 C72.0442061,44.2735053 72.3291354,44.2141368 72.5801051,44.0954 C72.831903,43.9774877 73.0456,43.8076281 73.2195394,43.5858211 C73.3934788,43.3648386 73.5268323,43.0968561 73.6187717,42.7818737 C73.7115394,42.4677158 73.7579232,42.1131544 73.7579232,41.7206632 C73.7579232,41.3281719 73.7115394,40.9744351 73.6187717,40.6594526 C73.5268323,40.3444702 73.3934788,40.0756632 73.2195394,39.8538561 C73.0456,39.6304 72.831903,39.4597158 72.5801051,39.3418035 C72.3291354,39.2222421 72.0442061,39.1628737 71.7253172,39.1628737 C71.4072566,39.1628737 71.1223273,39.2222421 70.8713576,39.3418035 C70.6187313,39.4597158 70.4058626,39.6304 70.2319232,39.8538561 C70.0579838,40.0756632 69.9246303,40.3444702 69.8326909,40.6594526 C69.7399232,40.9744351 69.6935394,41.3281719 69.6935394,41.7206632 C69.6935394,42.1131544 69.7399232,42.4677158 69.8326909,42.7818737 C69.9246303,43.0968561 70.0579838,43.3648386 70.2319232,43.5858211 C70.4058626,43.8076281 70.6187313,43.9774877 70.8713576,44.0954 C71.1223273,44.2141368 71.4072566,44.2735053 71.7253172,44.2735053 L71.7253172,44.2735053 Z M67.053802,41.2209789 L68.3517212,41.2209789 C68.4005899,40.7625228 68.5140646,40.3395228 68.6921455,39.9519789 C68.869398,39.5644351 69.1029737,39.2313123 69.3953576,38.9526105 C69.6860848,38.6739088 70.0281657,38.4562246 70.4216,38.2995579 C70.8133778,38.1428912 71.2490545,38.0645579 71.7253172,38.0645579 C72.2454788,38.0645579 72.7151152,38.1560842 73.1342263,38.3391368 C73.5533374,38.5221895 73.9111556,38.7769789 74.205196,39.1035053 C74.5008929,39.4300316 74.7270141,39.8175754 74.8860444,40.2636632 C75.045903,40.7114 75.1245899,41.1970667 75.1245899,41.7206632 C75.1245899,42.2450842 75.045903,42.7307509 74.8860444,43.1776632 C74.7270141,43.6245754 74.5008929,44.0112947 74.205196,44.3353474 C73.9111556,44.6602246 73.5533374,44.9141895 73.1342263,45.0972421 C72.7151152,45.2802947 72.2454788,45.3718211 71.7253172,45.3718211 C71.2490545,45.3718211 70.8142061,45.2951368 70.4240848,45.1417684 C70.0323071,44.9884 69.6918828,44.7731895 69.4019838,44.4969614 C69.1129131,44.2199088 68.8776808,43.8892596 68.6996,43.5066632 C68.5206909,43.1240667 68.4055596,42.7043649 68.3566909,42.2450842 L67.053802,42.2450842 L67.053802,45.2976105 L65.7119838,45.2976105 L65.7119838,38.1437158 L67.053802,38.1437158 L67.053802,41.2209789 Z" id="Fill-14" fill="#ABABAB" mask="url(#mask-2)"></path>
                <path d="M81.1381717,41.7402053 L82.1370808,41.7402053 C82.3822525,41.7402053 82.5959495,41.7105211 82.7773434,41.6495035 C82.9603939,41.5876614 83.1119697,41.5002579 83.232899,41.3864684 C83.3538283,41.2735035 83.4441111,41.1349772 83.5029192,40.9708895 C83.5633838,40.8076263 83.593202,40.6253982 83.593202,40.4242053 C83.593202,40.2337316 83.5633838,40.0605737 83.5029192,39.9047316 C83.4441111,39.7505386 83.3546566,39.6186088 83.2353838,39.5097667 C83.1161111,39.4001 82.9653636,39.3176439 82.7831414,39.2591 C82.6009192,39.2022053 82.3855657,39.1733456 82.1370808,39.1733456 L81.1381717,39.1733456 L81.1381717,41.7402053 Z M81.1381717,42.7799772 L81.1381717,45.2973632 L79.8013232,45.2973632 L79.8013232,38.144293 L82.1370808,38.144293 C82.6174848,38.144293 83.0332828,38.1995386 83.3844747,38.3125035 C83.7356667,38.4246439 84.0255657,38.5813105 84.2541717,38.7816789 C84.4827778,38.9828719 84.6525758,39.2236439 84.7635657,39.5039947 C84.8745556,39.7851702 84.9300505,40.0910825 84.9300505,40.4242053 C84.9300505,40.7705211 84.8720707,41.0888018 84.7561111,41.3773982 C84.6401515,41.6651702 84.4662121,41.9141877 84.2342929,42.1219772 C84.0023737,42.3297667 83.7108182,42.4905561 83.3621111,42.6068193 C83.0125758,42.7214333 82.6042323,42.7799772 82.1370808,42.7799772 L81.1381717,42.7799772 Z" id="Fill-15" fill="#ABABAB" mask="url(#mask-2)"></path>
                <path d="M93.9045778,38.5546772 C93.934396,38.5043789 93.9700121,38.4557298 94.0122545,38.4054316 C94.0536687,38.3567825 94.098396,38.3130807 94.1489212,38.2751509 C94.1977899,38.2372211 94.2524566,38.2058877 94.3096081,38.1811509 C94.3684162,38.156414 94.4305374,38.1440456 94.4968,38.1440456 L95.5006788,38.1440456 L95.5006788,45.2979404 L94.1588606,45.2979404 L94.1588606,40.8156246 C94.1588606,40.647414 94.163002,40.4717825 94.1704566,40.2887298 C94.1787394,40.1056772 94.1969616,39.9102561 94.2234667,39.7024667 C94.157204,39.8830456 94.0859717,40.0520807 94.0097697,40.2095719 C93.9327394,40.365414 93.8581939,40.5031158 93.7853051,40.6226772 L91.0370626,44.8873088 C91.0080727,44.9359579 90.9716283,44.9862561 90.9302141,45.0349053 C90.8888,45.0852035 90.8440727,45.1289053 90.7935475,45.1668351 C90.7446788,45.2039404 90.6891838,45.2360982 90.6303758,45.2608351 C90.5707394,45.2855719 90.5086182,45.2979404 90.4456687,45.2979404 L89.4417899,45.2979404 L89.4417899,38.1440456 L90.7836081,38.1440456 L90.7836081,42.6263614 C90.7836081,42.7945719 90.7794667,42.9718526 90.7695273,43.1606772 C90.7587596,43.3478526 90.7413657,43.5465719 90.7140323,43.7543614 C90.7811232,43.5696596 90.8523556,43.3981509 90.9302141,43.2398351 C91.008901,43.0806947 91.0859313,42.9405193 91.1613051,42.8193088 L93.9045778,38.5546772 Z" id="Fill-16" fill="#ABABAB" mask="url(#mask-2)"></path>
                <path d="M103.168507,39.1683158 C103.128749,39.8708421 103.074911,40.493386 103.006992,41.0384211 C102.939073,41.5826316 102.860386,42.0608772 102.770931,42.4731579 C102.681477,42.8854386 102.581255,43.2383509 102.470265,43.5318947 C102.358446,43.824614 102.24083,44.0719825 102.114931,44.2731754 L105.131537,44.2731754 L105.131537,39.1683158 L103.168507,39.1683158 Z M106.473356,38.1442105 L106.473356,44.2731754 L107.591537,44.2731754 L107.591537,46.6182281 C107.591537,46.7344912 107.552608,46.8260175 107.474749,46.8961053 C107.396063,46.9653684 107.294184,47 107.169113,47 L106.364022,47 L106.364022,45.2981053 L101.086204,45.2981053 L101.086204,46.6182281 C101.086204,46.7344912 101.046446,46.8260175 100.969416,46.8961053 C100.891558,46.9653684 100.789679,47 100.66378,47 L99.8586889,47 L99.8586889,44.2731754 L100.638931,44.2731754 C100.731699,44.2245263 100.824467,44.1445439 100.917234,44.0357018 C101.010002,43.9268596 101.099457,43.7743158 101.18477,43.5764211 C101.271739,43.3777018 101.353739,43.1286842 101.431598,42.8268947 C101.509457,42.5242807 101.579861,42.1557018 101.64281,41.7186842 C101.704931,41.2816667 101.759598,40.7679649 101.804325,40.1800526 C101.849053,39.5913158 101.883012,38.9118772 101.906204,38.1442105 L106.473356,38.1442105 Z" id="Fill-17" fill="#ABABAB" mask="url(#mask-2)"></path>
                <path d="M116.571531,38.5546772 C116.601349,38.5043789 116.636966,38.4557298 116.679208,38.4054316 C116.720622,38.3567825 116.765349,38.3130807 116.815875,38.2751509 C116.864743,38.2372211 116.91941,38.2058877 116.976562,38.1811509 C117.03537,38.156414 117.097491,38.1440456 117.163754,38.1440456 L118.167632,38.1440456 L118.167632,45.2979404 L116.825814,45.2979404 L116.825814,40.8156246 C116.825814,40.647414 116.829956,40.4717825 116.83741,40.2887298 C116.845693,40.1056772 116.863915,39.9102561 116.89042,39.7024667 C116.824158,39.8830456 116.752925,40.0520807 116.676723,40.2095719 C116.599693,40.365414 116.525147,40.5031158 116.452259,40.6226772 L113.704016,44.8873088 C113.675026,44.9359579 113.638582,44.9862561 113.597168,45.0349053 C113.555754,45.0852035 113.511026,45.1289053 113.460501,45.1668351 C113.411632,45.2039404 113.356137,45.2360982 113.297329,45.2608351 C113.237693,45.2855719 113.175572,45.2979404 113.112622,45.2979404 L112.108743,45.2979404 L112.108743,38.1440456 L113.450562,38.1440456 L113.450562,42.6263614 C113.450562,42.7945719 113.44642,42.9718526 113.436481,43.1606772 C113.425713,43.3478526 113.408319,43.5465719 113.380986,43.7543614 C113.448077,43.5696596 113.519309,43.3981509 113.597168,43.2398351 C113.675855,43.0806947 113.752885,42.9405193 113.828259,42.8193088 L116.571531,38.5546772 Z" id="Fill-18" fill="#ABABAB" mask="url(#mask-2)"></path>
                <path d="M128.375307,45.297693 L127.027691,45.297693 L127.027691,42.4331667 C126.640055,42.5288158 126.268156,42.6005526 125.911994,42.6459035 C125.556661,42.6920789 125.222863,42.7069211 124.913085,42.6904298 C124.603307,42.6739386 124.320863,42.6228158 124.06658,42.5370614 C123.81064,42.451307 123.59363,42.3210263 123.413065,42.1462193 C123.231671,41.9714123 123.091691,41.7496053 122.993125,41.4807982 C122.893731,41.2119912 122.843206,40.8862895 122.843206,40.503693 L122.843206,38.1437982 L124.189994,38.1437982 L124.189994,40.503693 C124.189994,40.7807456 124.238863,41.0116228 124.334115,41.1963246 C124.430196,41.3810263 124.589226,41.5162544 124.808721,41.6020088 C125.029873,41.6877632 125.3206,41.7215702 125.684216,41.7034298 C126.046176,41.6852895 126.494277,41.6135526 127.027691,41.4882193 L127.027691,38.1437982 L128.375307,38.1437982 L128.375307,45.297693 Z" id="Fill-19" fill="#ABABAB" mask="url(#mask-2)"></path>
                <polygon id="Fill-20" fill="#ABABAB" mask="url(#mask-2)" points="137.997634 38.1440456 137.997634 39.2027825 134.806261 39.2027825 134.806261 41.1858526 137.321756 41.1858526 137.321756 42.2107825 134.806261 42.2107825 134.806261 44.2342561 137.997634 44.2342561 137.997634 45.2979404 133.464442 45.2979404 133.464442 38.1440456"></polygon>
                <path d="M147.60381,43.6107228 C147.676699,43.6107228 147.741305,43.6387579 147.797628,43.6948281 L148.324416,44.2637754 C148.033689,44.6232842 147.674214,44.8986877 147.248477,45.089986 C146.823568,45.2812842 146.311689,45.3769333 145.715325,45.3769333 C145.181911,45.3769333 144.702335,45.2862316 144.276598,45.1048281 C143.850861,44.9234246 143.487244,44.6711088 143.185749,44.3478807 C142.884255,44.0246526 142.653164,43.6387579 142.492477,43.1901965 C142.33179,42.7416351 142.251446,42.2518456 142.251446,41.7208281 C142.251446,41.183214 142.338416,40.6909509 142.510699,40.2440386 C142.682982,39.7971263 142.925669,39.4120561 143.237931,39.0888281 C143.551022,38.7656 143.925406,38.5141088 144.358598,38.3343544 C144.792618,38.1546 145.273851,38.0638982 145.79981,38.0638982 C146.323285,38.0638982 146.78878,38.1504772 147.19381,38.321986 C147.599669,38.4934947 147.945063,38.7169509 148.229992,38.9948281 L147.782719,39.6132491 C147.757042,39.6528281 147.723083,39.6874596 147.68084,39.7171439 C147.639426,39.7460035 147.582275,39.7616702 147.509386,39.7616702 C147.459689,39.7616702 147.408335,39.7468281 147.355325,39.7196175 C147.302315,39.6915825 147.244335,39.6569509 147.181386,39.6157228 C147.118436,39.5736702 147.045547,39.5291439 146.963547,39.4796702 C146.879891,39.4301965 146.78381,39.3848456 146.674477,39.3436175 C146.565143,39.3023895 146.438416,39.2677579 146.294295,39.2397228 C146.150174,39.2116877 145.983689,39.1968456 145.79484,39.1968456 C145.473467,39.1968456 145.179426,39.2545649 144.912719,39.3675298 C144.646012,39.4821439 144.416578,39.6470561 144.224416,39.8630912 C144.032255,40.0791263 143.883164,40.342986 143.777143,40.6546702 C143.671123,40.9663544 143.618113,41.3217404 143.618113,41.7208281 C143.618113,42.123214 143.675265,42.4810737 143.790396,42.794407 C143.903871,43.1077404 144.05876,43.3716 144.254234,43.585986 C144.449709,43.7995474 144.679972,43.9644596 144.945022,44.0782491 C145.210073,44.1920386 145.495002,44.2481088 145.79981,44.2481088 C145.982032,44.2481088 146.146861,44.2390386 146.294295,44.2192491 C146.441729,44.1994596 146.577568,44.1681263 146.70181,44.1252491 C146.826881,44.0823719 146.943669,44.0271263 147.054659,43.9595123 C147.165648,43.8918982 147.27581,43.8086175 147.385143,43.7096702 C147.418275,43.679986 147.453063,43.6560737 147.489507,43.6379333 C147.525952,43.619793 147.564053,43.6107228 147.60381,43.6107228" id="Fill-21" fill="#ABABAB" mask="url(#mask-2)"></path>
                <path d="M154.069137,41.1419035 L154.745016,41.1419035 C154.880026,41.1419035 154.998471,41.1188158 155.097865,41.0726404 C155.197259,41.0264649 155.290026,40.9407105 155.376168,40.8153772 L156.950733,38.5000088 C157.017824,38.3944649 157.095683,38.3087105 157.185137,38.2427456 C157.274592,38.1767807 157.382269,38.1437982 157.508168,38.1437982 L158.651198,38.1437982 L156.698107,41.0132719 C156.615279,41.1386053 156.51837,41.2425 156.40738,41.3249561 C156.295562,41.4074123 156.176289,41.4717281 156.047077,41.5179035 C156.245865,41.5739737 156.414006,41.6622018 156.551501,41.7825877 C156.688996,41.9029737 156.820693,42.0687105 156.946592,42.2797982 L158.830107,45.297693 L157.617501,45.297693 C157.491602,45.297693 157.38641,45.2647105 157.301925,45.1987456 C157.21744,45.1327807 157.138754,45.0354825 157.065865,44.9068509 L155.535198,42.5024298 C155.49544,42.4331667 155.453198,42.3762719 155.408471,42.3317456 C155.363743,42.2872193 155.315703,42.2509386 155.264349,42.2237281 C155.212996,42.1948684 155.155016,42.1759035 155.09041,42.1660088 C155.025804,42.156114 154.951259,42.1511667 154.869259,42.1511667 L154.069137,42.1511667 L154.069137,45.297693 L152.732289,45.297693 L152.732289,38.1437982 L154.069137,38.1437982 L154.069137,41.1419035 Z" id="Fill-22" fill="#ABABAB" mask="url(#mask-2)"></path>
                <path d="M167.600711,38.5546772 C167.630529,38.5043789 167.666145,38.4557298 167.708388,38.4054316 C167.749802,38.3567825 167.794529,38.3130807 167.845055,38.2751509 C167.893923,38.2372211 167.94859,38.2058877 168.005741,38.1811509 C168.064549,38.156414 168.126671,38.1440456 168.192933,38.1440456 L169.196812,38.1440456 L169.196812,45.2979404 L167.854994,45.2979404 L167.854994,40.8156246 C167.854994,40.647414 167.859135,40.4717825 167.86659,40.2887298 C167.874873,40.1056772 167.893095,39.9102561 167.9196,39.7024667 C167.853337,39.8830456 167.782105,40.0520807 167.705903,40.2095719 C167.628873,40.365414 167.554327,40.5031158 167.481438,40.6226772 L164.733196,44.8873088 C164.704206,44.9359579 164.667762,44.9862561 164.626347,45.0349053 C164.584933,45.0852035 164.540206,45.1289053 164.489681,45.1668351 C164.440812,45.2039404 164.385317,45.2360982 164.326509,45.2608351 C164.266873,45.2855719 164.204752,45.2979404 164.141802,45.2979404 L163.137923,45.2979404 L163.137923,38.1440456 L164.479741,38.1440456 L164.479741,42.6263614 C164.479741,42.7945719 164.4756,42.9718526 164.465661,43.1606772 C164.454893,43.3478526 164.437499,43.5465719 164.410166,43.7543614 C164.477257,43.5696596 164.548489,43.3981509 164.626347,43.2398351 C164.705034,43.0806947 164.782065,42.9405193 164.857438,42.8193088 L167.600711,38.5546772 Z" id="Fill-23" fill="#ABABAB" mask="url(#mask-2)"></path>
                <polygon id="Fill-24" fill="#ABABAB" mask="url(#mask-2)" points="178.818063 38.1440456 178.818063 39.2027825 175.626689 39.2027825 175.626689 41.1858526 178.142184 41.1858526 178.142184 42.2107825 175.626689 42.2107825 175.626689 44.2342561 178.818063 44.2342561 178.818063 45.2979404 174.284871 45.2979404 174.284871 38.1440456"></polygon>
                <path d="M190.486828,44.2686404 C190.56303,44.2554474 190.638404,44.2290614 190.712121,44.1894825 C190.787495,44.1499035 190.859556,44.0938333 190.929131,44.0212719 C190.998707,43.9487105 191.063313,43.8530614 191.122949,43.7343246 L191.406222,43.1653772 L188.523798,38.1437982 L189.776162,38.1437982 C189.892121,38.1437982 189.984889,38.1718333 190.054465,38.2279035 C190.12404,38.2839737 190.18202,38.354886 190.227576,38.4406404 L191.624889,41.0627456 C191.777293,41.3430965 191.898222,41.631693 191.987677,41.9285351 C192.030747,41.780114 192.080444,41.6349912 192.136768,41.4931667 C192.193091,41.3513421 192.25604,41.2078684 192.325616,41.0627456 L193.542364,38.4406404 C193.578808,38.3680789 193.634303,38.3004649 193.707192,38.2386228 C193.780081,38.1751316 193.872848,38.1437982 193.985495,38.1437982 L195.093737,38.1437982 L192.191434,44.3032719 C192.088727,44.5176579 191.979394,44.694114 191.863434,44.8326404 C191.746646,44.9711667 191.622404,45.0800088 191.488222,45.1591667 C191.35404,45.2383246 191.209919,45.2935702 191.055859,45.3249035 C190.901798,45.3562368 190.73697,45.3719035 190.561374,45.3719035 C190.322828,45.3719035 190.148889,45.3504649 190.039556,45.3075877 C189.930222,45.2647105 189.875556,45.2020439 189.875556,45.1195877 L189.875556,44.2884298 L190.262364,44.2884298 C190.335253,44.2884298 190.410626,44.2818333 190.486828,44.2686404" id="Fill-25" fill="#ABABAB" mask="url(#mask-2)"></path>
                <path d="M204.222242,43.6107228 C204.295131,43.6107228 204.359737,43.6387579 204.416061,43.6948281 L204.942848,44.2637754 C204.652121,44.6232842 204.292646,44.8986877 203.866909,45.089986 C203.442,45.2812842 202.930121,45.3769333 202.333758,45.3769333 C201.800343,45.3769333 201.320768,45.2862316 200.89503,45.1048281 C200.469293,44.9234246 200.105677,44.6711088 199.804182,44.3478807 C199.502687,44.0246526 199.271596,43.6387579 199.110909,43.1901965 C198.950222,42.7416351 198.869879,42.2518456 198.869879,41.7208281 C198.869879,41.183214 198.956848,40.6909509 199.129131,40.2440386 C199.301414,39.7971263 199.544101,39.4120561 199.856364,39.0888281 C200.169455,38.7656 200.543838,38.5141088 200.97703,38.3343544 C201.411051,38.1546 201.892283,38.0638982 202.418242,38.0638982 C202.941717,38.0638982 203.407212,38.1504772 203.812242,38.321986 C204.218101,38.4934947 204.563495,38.7169509 204.848424,38.9948281 L204.401152,39.6132491 C204.375475,39.6528281 204.341515,39.6874596 204.299273,39.7171439 C204.257859,39.7460035 204.200707,39.7616702 204.127818,39.7616702 C204.078121,39.7616702 204.026768,39.7468281 203.973758,39.7196175 C203.920747,39.6915825 203.862768,39.6569509 203.799818,39.6157228 C203.736869,39.5736702 203.66398,39.5291439 203.58198,39.4796702 C203.498323,39.4301965 203.402242,39.3848456 203.292909,39.3436175 C203.183576,39.3023895 203.056848,39.2677579 202.912727,39.2397228 C202.768606,39.2116877 202.602121,39.1968456 202.413273,39.1968456 C202.091899,39.1968456 201.797859,39.2545649 201.531152,39.3675298 C201.264444,39.4821439 201.03501,39.6470561 200.842848,39.8630912 C200.650687,40.0791263 200.501596,40.342986 200.395576,40.6546702 C200.289556,40.9663544 200.236545,41.3217404 200.236545,41.7208281 C200.236545,42.123214 200.293697,42.4810737 200.408828,42.794407 C200.522303,43.1077404 200.677192,43.3716 200.872667,43.585986 C201.068141,43.7995474 201.298404,43.9644596 201.563455,44.0782491 C201.828505,44.1920386 202.113434,44.2481088 202.418242,44.2481088 C202.600465,44.2481088 202.765293,44.2390386 202.912727,44.2192491 C203.060162,44.1994596 203.196,44.1681263 203.320242,44.1252491 C203.445313,44.0823719 203.562101,44.0271263 203.673091,43.9595123 C203.784081,43.8918982 203.894242,43.8086175 204.003576,43.7096702 C204.036707,43.679986 204.071495,43.6560737 204.107939,43.6379333 C204.144384,43.619793 204.182485,43.6107228 204.222242,43.6107228" id="Fill-26" fill="#ABABAB" mask="url(#mask-2)"></path>
                <path d="M215.146051,38.1440456 L215.146051,45.2979404 L213.799263,45.2979404 L213.799263,39.1681509 L211.836232,39.1681509 C211.789848,40.0652737 211.724414,40.841186 211.639929,41.4950632 C211.555444,42.1497649 211.453566,42.707993 211.334293,43.1680982 C211.21502,43.6273789 211.080838,44.0017298 210.931747,44.2886772 C210.782657,44.5756246 210.618657,44.7990807 210.439747,44.9590456 C210.261667,45.1190105 210.068677,45.2278526 209.863263,45.2855719 C209.657848,45.3424667 209.442495,45.3721509 209.217202,45.3721509 C208.978657,45.3721509 208.804717,45.3498877 208.695384,45.3078351 C208.586051,45.2649579 208.531384,45.2022912 208.531384,45.1198351 L208.531384,44.2886772 L208.914879,44.2886772 C209.000192,44.2886772 209.087162,44.2779579 209.17496,44.258993 C209.262758,44.2392035 209.350556,44.1971509 209.438354,44.1328351 C209.526152,44.0685193 209.612293,43.9753439 209.696778,43.8533088 C209.781263,43.7304491 209.862434,43.567186 209.940293,43.3610456 C210.018152,43.1549053 210.09104,42.9017649 210.15896,42.6016246 C210.226879,42.3014842 210.288172,41.9403263 210.342838,41.5181509 C210.397505,41.0959754 210.445545,40.6070105 210.48696,40.0512561 C210.528374,39.4955018 210.55902,38.8597649 210.578899,38.1440456 L215.146051,38.1440456 Z" id="Fill-27" fill="#ABABAB" mask="url(#mask-2)"></path>
                <path d="M221.328271,44.2686404 C221.404473,44.2554474 221.479846,44.2290614 221.553564,44.1894825 C221.628937,44.1499035 221.700998,44.0938333 221.770574,44.0212719 C221.840149,43.9487105 221.904756,43.8530614 221.964392,43.7343246 L222.247665,43.1653772 L219.36524,38.1437982 L220.617604,38.1437982 C220.733564,38.1437982 220.826331,38.1718333 220.895907,38.2279035 C220.965483,38.2839737 221.023463,38.354886 221.069018,38.4406404 L222.466331,41.0627456 C222.618735,41.3430965 222.739665,41.631693 222.829119,41.9285351 C222.87219,41.780114 222.921887,41.6349912 222.97821,41.4931667 C223.034533,41.3513421 223.097483,41.2078684 223.167059,41.0627456 L224.383806,38.4406404 C224.420251,38.3680789 224.475745,38.3004649 224.548634,38.2386228 C224.621523,38.1751316 224.714291,38.1437982 224.826937,38.1437982 L225.93518,38.1437982 L223.032877,44.3032719 C222.93017,44.5176579 222.820836,44.694114 222.704877,44.8326404 C222.588089,44.9711667 222.463846,45.0800088 222.329665,45.1591667 C222.195483,45.2383246 222.051362,45.2935702 221.897301,45.3249035 C221.74324,45.3562368 221.578412,45.3719035 221.402816,45.3719035 C221.164271,45.3719035 220.990331,45.3504649 220.880998,45.3075877 C220.771665,45.2647105 220.716998,45.2020439 220.716998,45.1195877 L220.716998,44.2884298 L221.103806,44.2884298 C221.176695,44.2884298 221.252069,44.2818333 221.328271,44.2686404" id="Fill-28" fill="#ABABAB" mask="url(#mask-2)"></path>
                <polygon id="Fill-29" fill="#ABABAB" mask="url(#mask-2)" points="234.56216 39.1683158 231.471008 39.1683158 231.471008 45.2981053 230.128362 45.2981053 230.128362 38.1442105 234.56216 38.1442105"></polygon>
                <path d="M243.462141,38.5546772 C243.49196,38.5043789 243.527576,38.4557298 243.569818,38.4054316 C243.611232,38.3567825 243.65596,38.3130807 243.706485,38.2751509 C243.755354,38.2372211 243.81002,38.2058877 243.867172,38.1811509 C243.92598,38.156414 243.988101,38.1440456 244.054364,38.1440456 L245.058242,38.1440456 L245.058242,45.2979404 L243.716424,45.2979404 L243.716424,40.8156246 C243.716424,40.647414 243.720566,40.4717825 243.72802,40.2887298 C243.736303,40.1056772 243.754525,39.9102561 243.78103,39.7024667 C243.714768,39.8830456 243.643535,40.0520807 243.567333,40.2095719 C243.490303,40.365414 243.415758,40.5031158 243.342869,40.6226772 L240.594626,44.8873088 C240.565636,44.9359579 240.529192,44.9862561 240.487778,45.0349053 C240.446364,45.0852035 240.401636,45.1289053 240.351111,45.1668351 C240.302242,45.2039404 240.246747,45.2360982 240.187939,45.2608351 C240.128303,45.2855719 240.066182,45.2979404 240.003232,45.2979404 L238.999354,45.2979404 L238.999354,38.1440456 L240.341172,38.1440456 L240.341172,42.6263614 C240.341172,42.7945719 240.33703,42.9718526 240.327091,43.1606772 C240.316323,43.3478526 240.298929,43.5465719 240.271596,43.7543614 C240.338687,43.5696596 240.409919,43.3981509 240.487778,43.2398351 C240.566465,43.0806947 240.643495,42.9405193 240.718869,42.8193088 L243.462141,38.5546772 Z" id="Fill-30" fill="#ABABAB" mask="url(#mask-2)"></path>
            </g>
        </g>
    </g>
</svg>