<?xml version="1.0" encoding="UTF-8"?>
<svg width="298px" height="57px" viewBox="0 0 298 57" version="1.1" xmlns="http://www.w3.org/2000/svg" xmlns:xlink="http://www.w3.org/1999/xlink">
    <!-- Generator: Sketch 45.2 (43514) - http://www.bohemiancoding.com/sketch -->
    <title>Logo Russian White</title>
    <desc>Created with Sketch.</desc>
    <defs>
        <polygon id="path-1" points="0 57 297.894646 57 297.894646 0.367 0 0.367"></polygon>
    </defs>
    <g id="Header" stroke="none" stroke-width="1" fill="none" fill-rule="evenodd">
        <g id="Navigation" transform="translate(1.000000, -41.000000)">
            <g id="Logo-Russian-White" transform="translate(-1.000000, 41.000000)">
                <polygon id="Fill-1" fill="#FFFFFF" points="90.8589555 30 85.1420462 30 73 1 79.1757046 1 87.9789635 23.4813879 96.8252972 1 103 1"></polygon>
                <polygon id="Fill-2" fill="#FFFFFF" points="136 30 114 30 114 1 136 1 136 6.30328909 119.499496 6.30328909 119.499496 12.9721851 135.411344 12.9721851 135.411344 18.0675995 119.499496 18.0675995 119.499496 24.6141578 136 24.6141578"></polygon>
                <g id="Group-31">
                    <path d="M154.16433,6.4893 L154.16433,15.8203 L162.564519,15.8203 C166.0753,15.8203 167.579347,13.4863 167.579347,11.1553 C167.579347,8.8223 166.034162,6.4893 162.564519,6.4893 L154.16433,6.4893 Z M174.559771,30.5233 L167.997751,30.5233 L159.472141,20.7763 L154.16433,20.7763 L154.16433,30.5233 L148.647818,30.5233 L148.647818,1.3243 C153.286384,1.3243 157.925953,1.3663 162.564519,1.3663 C169.46066,1.4083 173.096862,5.9893 173.096862,11.0303 C173.096862,15.0283 171.25769,19.0683 165.699037,20.1933 L174.559771,30.1483 L174.559771,30.5233 Z" id="Fill-3" fill="#FFFFFF"></path>
                    <mask id="mask-2" fill="white">
                        <use xlink:href="#path-1"></use>
                    </mask>
                    <g id="Clip-6"></g>
                    <polygon id="Fill-5" fill="#FFFFFF" mask="url(#mask-2)" points="185.006828 30.523 190.482202 30.523 190.482202 1.366 185.006828 1.366"></polygon>
                    <polygon id="Fill-7" fill="#FFFFFF" mask="url(#mask-2)" points="212.71531 6.3643 203.438178 6.3643 203.438178 1.3663 227.51096 1.3663 227.51096 6.3643 218.231822 6.3643 218.231822 30.5233 212.71531 30.5233"></polygon>
                    <path d="M249.067698,7.4883 L243.634465,19.9013 L254.50093,19.9013 L249.067698,7.4883 Z M256.716364,25.0253 L241.420034,25.0253 L238.91262,30.5233 L232.935563,30.5233 L246.0586,1.3663 L252.076795,1.3663 L265.199832,30.5233 L259.18264,30.5233 L256.716364,25.0253 Z" id="Fill-8" fill="#FFFFFF" mask="url(#mask-2)"></path>
                    <path d="M292.586835,8.4053 C291.584471,6.7393 288.826215,5.1573 285.649556,5.1573 C281.554815,5.1573 279.589219,6.8643 279.589219,9.0303 C279.589219,11.5713 282.598316,12.2793 286.110101,12.6953 C292.211576,13.4453 297.894646,15.0283 297.894646,21.9843 C297.894646,28.4823 292.128296,31.2733 285.608418,31.2733 C279.63136,31.2733 275.033933,29.4393 272.861643,24.1083 L277.458067,21.7353 C278.754418,24.9413 282.138774,26.3583 285.691697,26.3583 C289.160337,26.3583 292.420276,25.1503 292.420276,21.9843 C292.420276,19.2353 289.536599,18.1103 285.649556,17.6943 C279.673502,16.9863 274.155987,15.4033 274.155987,8.8633 C274.155987,2.8653 280.090902,0.4093 285.482997,0.3673 C290.037279,0.3673 294.761131,1.6583 296.975562,6.1563 L292.586835,8.4053 Z" id="Fill-9" fill="#FFFFFF" mask="url(#mask-2)"></path>
                    <polygon id="Fill-10" fill="#FFFFFF" mask="url(#mask-2)" points="20.5611973 49.4414 27.3660323 33.4184 13.7543556 33.4184"></polygon>
                    <polygon id="Fill-11" fill="#FFFFFF" mask="url(#mask-2)" points="29.2951057 28.9775 34.1925401 17.3915 6.97420337 17.3915 11.8304997 28.9775"></polygon>
                    <polygon id="Fill-12" fill="#FFFFFF" mask="url(#mask-2)" points="36.0501737 12.9512 41.0168404 1.3662 0.000200673401 1.3662 5.00098182 12.9512"></polygon>
                    <polygon id="Fill-13" fill="#FFFFFF" mask="url(#mask-2)" points="23.0069044 55.0439 45.8595912 1.3659 58.5070323 1.3659 35.6252478 55.0439"></polygon>
                    <path d="M86.8867663,53.6934 C87.2730626,53.6934 87.6182209,53.6214 87.9222411,53.4774 C88.2272646,53.3344 88.4861333,53.1284 88.6968404,52.8594 C88.9075475,52.5914 89.0690896,52.2664 89.1804633,51.8844 C89.2928404,51.5034 89.349029,51.0734 89.349029,50.5974 C89.349029,50.1214 89.2928404,49.6924 89.1804633,49.3104 C89.0690896,48.9284 88.9075475,48.6024 88.6968404,48.3334 C88.4861333,48.0624 88.2272646,47.8554 87.9222411,47.7124 C87.6182209,47.5674 87.2730626,47.4954 86.8867663,47.4954 C86.5014734,47.4954 86.1563152,47.5674 85.8522949,47.7124 C85.546268,47.8554 85.2884027,48.0624 85.0776956,48.3334 C84.8669886,48.6024 84.7054465,48.9284 84.5940727,49.3104 C84.4816956,49.6924 84.4255071,50.1214 84.4255071,50.5974 C84.4255071,51.0734 84.4816956,51.5034 84.5940727,51.8844 C84.7054465,52.2664 84.8669886,52.5914 85.0776956,52.8594 C85.2884027,53.1284 85.546268,53.3344 85.8522949,53.4774 C86.1563152,53.6214 86.5014734,53.6934 86.8867663,53.6934 L86.8867663,53.6934 Z M81.2277764,49.9914 L82.8000525,49.9914 C82.8592512,49.4354 82.9967125,48.9224 83.2124364,48.4524 C83.4271569,47.9824 83.7101064,47.5784 84.0642949,47.2404 C84.4164768,46.9024 84.8308673,46.6384 85.3074667,46.4484 C85.7820593,46.2584 86.3098303,46.1634 86.8867663,46.1634 C87.5168808,46.1634 88.0857899,46.2744 88.5934936,46.4964 C89.1011973,46.7184 89.5346519,47.0274 89.8908471,47.4234 C90.2490492,47.8194 90.5229684,48.2894 90.7156148,48.8304 C90.9092646,49.3734 91.0045845,49.9624 91.0045845,50.5974 C91.0045845,51.2334 90.9092646,51.8224 90.7156148,52.3644 C90.5229684,52.9064 90.2490492,53.3754 89.8908471,53.7684 C89.5346519,54.1624 89.1011973,54.4704 88.5934936,54.6924 C88.0857899,54.9144 87.5168808,55.0254 86.8867663,55.0254 C86.3098303,55.0254 85.7830626,54.9324 85.3104768,54.7464 C84.8358842,54.5604 84.4235003,54.2994 84.0723219,53.9644 C83.7221468,53.6284 83.4371906,53.2274 83.2214667,52.7634 C83.0047394,52.2994 82.8652714,51.7904 82.8060727,51.2334 L81.2277764,51.2334 L81.2277764,54.9354 L79.6023219,54.9354 L79.6023219,46.2594 L81.2277764,46.2594 L81.2277764,49.9914 Z" id="Fill-14" fill="#FFFFFF" mask="url(#mask-2)"></path>
                    <path d="M98.28933,50.6211 L99.4993906,50.6211 C99.7963872,50.6211 100.055256,50.5851 100.274993,50.5111 C100.496737,50.4361 100.680354,50.3301 100.826845,50.1921 C100.973337,50.0551 101.082704,49.8871 101.153943,49.6881 C101.227189,49.4901 101.26331,49.2691 101.26331,49.0251 C101.26331,48.7941 101.227189,48.5841 101.153943,48.3951 C101.082704,48.2081 100.97434,48.0481 100.829855,47.9161 C100.68537,47.7831 100.502758,47.6831 100.282017,47.6121 C100.061276,47.5431 99.8004007,47.5081 99.4993906,47.5081 L98.28933,47.5081 L98.28933,50.6211 Z M98.28933,51.8821 L98.28933,54.9351 L96.6698956,54.9351 L96.6698956,46.2601 L99.4993906,46.2601 C100.081343,46.2601 100.585034,46.3271 101.010461,46.4641 C101.435889,46.6001 101.787067,46.7901 102.063997,47.0331 C102.340926,47.2771 102.546616,47.5691 102.681067,47.9091 C102.815519,48.2501 102.882744,48.6211 102.882744,49.0251 C102.882744,49.4451 102.812508,49.8311 102.672037,50.1811 C102.531566,50.5301 102.320859,50.8321 102.039916,51.0841 C101.758973,51.3361 101.405788,51.5311 100.98337,51.6721 C100.559949,51.8111 100.06529,51.8821 99.4993906,51.8821 L98.28933,51.8821 Z" id="Fill-15" fill="#FFFFFF" mask="url(#mask-2)"></path>
                    <path d="M113.754326,46.7578 C113.790447,46.6968 113.833592,46.6378 113.884764,46.5768 C113.934932,46.5178 113.989114,46.4648 114.050319,46.4188 C114.109518,46.3728 114.17574,46.3348 114.244972,46.3048 C114.316211,46.2748 114.391464,46.2598 114.471733,46.2598 L115.687814,46.2598 L115.687814,54.9358 L114.06236,54.9358 L114.06236,49.4998 C114.06236,49.2958 114.067376,49.0828 114.076407,48.8608 C114.08644,48.6388 114.108514,48.4018 114.140622,48.1498 C114.060353,48.3688 113.974063,48.5738 113.881754,48.7648 C113.78844,48.9538 113.698137,49.1208 113.609841,49.2658 L110.280669,54.4378 C110.245552,54.4968 110.201403,54.5578 110.151235,54.6168 C110.101067,54.6778 110.046885,54.7308 109.985679,54.7768 C109.926481,54.8218 109.859255,54.8608 109.788016,54.8908 C109.715774,54.9208 109.640521,54.9358 109.564265,54.9358 L108.348185,54.9358 L108.348185,46.2598 L109.973639,46.2598 L109.973639,51.6958 C109.973639,51.8998 109.968622,52.1148 109.956582,52.3438 C109.943538,52.5708 109.922467,52.8118 109.889356,53.0638 C109.970629,52.8398 110.056919,52.6318 110.151235,52.4398 C110.246555,52.2468 110.339868,52.0768 110.431174,51.9298 L113.754326,46.7578 Z" id="Fill-16" fill="#FFFFFF" mask="url(#mask-2)"></path>
                    <path d="M124.976484,47.502 C124.928323,48.354 124.863104,49.109 124.780828,49.77 C124.698552,50.43 124.603232,51.01 124.494868,51.51 C124.386504,52.01 124.265097,52.438 124.130646,52.794 C123.995191,53.149 123.852713,53.449 123.700201,53.693 L127.354464,53.693 L127.354464,47.502 L124.976484,47.502 Z M128.979919,46.26 L128.979919,53.693 L130.334464,53.693 L130.334464,56.537 C130.334464,56.678 130.287306,56.789 130.192989,56.874 C130.097669,56.958 129.974255,57 129.822747,57 L128.847474,57 L128.847474,54.936 L122.45402,54.936 L122.45402,56.537 C122.45402,56.678 122.405858,56.789 122.312545,56.874 C122.218228,56.958 122.094814,57 121.942302,57 L120.96703,57 L120.96703,53.693 L121.912201,53.693 C122.024578,53.634 122.136956,53.537 122.249333,53.405 C122.36171,53.273 122.470073,53.088 122.57342,52.848 C122.678774,52.607 122.778107,52.305 122.872424,51.939 C122.96674,51.572 123.052026,51.125 123.128282,50.595 C123.203535,50.065 123.269757,49.442 123.323939,48.729 C123.378121,48.015 123.419259,47.191 123.447353,46.26 L128.979919,46.26 Z" id="Fill-17" fill="#FFFFFF" mask="url(#mask-2)"></path>
                    <path d="M141.212668,46.7578 C141.248789,46.6968 141.291934,46.6378 141.343106,46.5768 C141.393274,46.5178 141.447456,46.4648 141.508661,46.4188 C141.56786,46.3728 141.634082,46.3348 141.703314,46.3048 C141.774554,46.2748 141.849806,46.2598 141.930075,46.2598 L143.146156,46.2598 L143.146156,54.9358 L141.520702,54.9358 L141.520702,49.4998 C141.520702,49.2958 141.525719,49.0828 141.534749,48.8608 C141.544782,48.6388 141.566857,48.4018 141.598964,48.1498 C141.518695,48.3688 141.432405,48.5738 141.340096,48.7648 C141.246782,48.9538 141.156479,49.1208 141.068183,49.2658 L137.739011,54.4378 C137.703894,54.4968 137.659745,54.5578 137.609577,54.6168 C137.559409,54.6778 137.505227,54.7308 137.444022,54.7768 C137.384823,54.8218 137.317597,54.8608 137.246358,54.8908 C137.174116,54.9208 137.098863,54.9358 137.022607,54.9358 L135.806527,54.9358 L135.806527,46.2598 L137.431981,46.2598 L137.431981,51.6958 C137.431981,51.8998 137.426964,52.1148 137.414924,52.3438 C137.40188,52.5708 137.380809,52.8118 137.347698,53.0638 C137.428971,52.8398 137.515261,52.6318 137.609577,52.4398 C137.704897,52.2468 137.79821,52.0768 137.889516,51.9298 L141.212668,46.7578 Z" id="Fill-18" fill="#FFFFFF" mask="url(#mask-2)"></path>
                    <path d="M155.511551,54.9355 L153.879073,54.9355 L153.879073,51.4615 C153.409497,51.5775 152.958985,51.6645 152.527537,51.7195 C152.097093,51.7755 151.692736,51.7935 151.317477,51.7735 C150.942218,51.7535 150.600069,51.6915 150.292036,51.5875 C149.981995,51.4835 149.719113,51.3255 149.500379,51.1135 C149.280642,50.9015 149.111073,50.6325 148.991672,50.3065 C148.871268,49.9805 148.810063,49.5855 148.810063,49.1215 L148.810063,46.2595 L150.441537,46.2595 L150.441537,49.1215 C150.441537,49.4575 150.500736,49.7375 150.616123,49.9615 C150.732514,50.1855 150.92516,50.3495 151.191053,50.4535 C151.458952,50.5575 151.811133,50.5985 152.251611,50.5765 C152.690083,50.5545 153.232904,50.4675 153.879073,50.3155 L153.879073,46.2595 L155.511551,46.2595 L155.511551,54.9355 Z" id="Fill-19" fill="#FFFFFF" mask="url(#mask-2)"></path>
                    <polygon id="Fill-20" fill="#FFFFFF" mask="url(#mask-2)" points="167.167866 46.2598 167.167866 47.5438 163.301893 47.5438 163.301893 49.9488 166.349119 49.9488 166.349119 51.1918 163.301893 51.1918 163.301893 53.6458 167.167866 53.6458 167.167866 54.9358 161.676438 54.9358 161.676438 46.2598"></polygon>
                    <path d="M178.804615,52.8896 C178.892912,52.8896 178.971174,52.9236 179.039403,52.9916 L179.677545,53.6816 C179.325363,54.1176 178.889902,54.4516 178.374171,54.6836 C177.859444,54.9156 177.239363,55.0316 176.516939,55.0316 C175.87077,55.0316 175.289821,54.9216 174.77409,54.7016 C174.25836,54.4816 173.817881,54.1756 173.452656,53.7836 C173.08743,53.3916 172.807491,52.9236 172.612838,52.3796 C172.418185,51.8356 172.320858,51.2416 172.320858,50.5976 C172.320858,49.9456 172.426211,49.3486 172.634912,48.8066 C172.843612,48.2646 173.137599,47.7976 173.515868,47.4056 C173.895141,47.0136 174.348663,46.7086 174.873424,46.4906 C175.399188,46.2726 175.982144,46.1626 176.619282,46.1626 C177.25341,46.1626 177.817302,46.2676 178.307949,46.4756 C178.799599,46.6836 179.218003,46.9546 179.563161,47.2916 L179.021343,48.0416 C178.990238,48.0896 178.9491,48.1316 178.897929,48.1676 C178.84776,48.2026 178.778528,48.2216 178.690232,48.2216 C178.63003,48.2216 178.567821,48.2036 178.503605,48.1706 C178.43939,48.1366 178.369154,48.0946 178.292898,48.0446 C178.216642,47.9936 178.128346,47.9396 178.029013,47.8796 C177.927673,47.8196 177.811282,47.7646 177.678838,47.7146 C177.546393,47.6646 177.392878,47.6226 177.218292,47.5886 C177.043706,47.5546 176.84203,47.5366 176.613262,47.5366 C176.223956,47.5366 175.86776,47.6066 175.544676,47.7436 C175.221592,47.8826 174.943659,48.0826 174.710878,48.3446 C174.478097,48.6066 174.297491,48.9266 174.16906,49.3046 C174.040629,49.6826 173.976413,50.1136 173.976413,50.5976 C173.976413,51.0856 174.045646,51.5196 174.185114,51.8996 C174.322575,52.2796 174.510205,52.5996 174.746999,52.8596 C174.983794,53.1186 175.26273,53.3186 175.583807,53.4566 C175.904885,53.5946 176.250043,53.6626 176.619282,53.6626 C176.840023,53.6626 177.039693,53.6516 177.218292,53.6276 C177.396892,53.6036 177.561444,53.5656 177.711949,53.5136 C177.863457,53.4616 178.004932,53.3946 178.139383,53.3126 C178.273834,53.2306 178.407282,53.1296 178.539727,53.0096 C178.579861,52.9736 178.622003,52.9446 178.666151,52.9226 C178.710299,52.9006 178.756454,52.8896 178.804615,52.8896" id="Fill-21" fill="#FFFFFF" mask="url(#mask-2)"></path>
                    <path d="M186.636597,49.8955 L187.455345,49.8955 C187.618894,49.8955 187.762375,49.8675 187.882779,49.8115 C188.003183,49.7555 188.11556,49.6515 188.21991,49.4995 L190.127311,46.6915 C190.208584,46.5635 190.3029,46.4595 190.411264,46.3795 C190.519628,46.2995 190.650065,46.2595 190.802577,46.2595 L192.187224,46.2595 L189.821284,49.7395 C189.720947,49.8915 189.603554,50.0175 189.469102,50.1175 C189.333648,50.2175 189.189163,50.2955 189.032638,50.3515 C189.273446,50.4195 189.477129,50.5265 189.643688,50.6725 C189.810247,50.8185 189.969782,51.0195 190.122294,51.2755 L192.403951,54.9355 L190.935022,54.9355 C190.78251,54.9355 190.655082,54.8955 190.552739,54.8155 C190.450395,54.7355 190.355075,54.6175 190.266779,54.4615 L188.412557,51.5455 C188.364395,51.4615 188.313224,51.3925 188.259042,51.3385 C188.20486,51.2845 188.146665,51.2405 188.084456,51.2075 C188.022247,51.1725 187.952011,51.1495 187.873749,51.1375 C187.795486,51.1255 187.705183,51.1195 187.60585,51.1195 L186.636597,51.1195 L186.636597,54.9355 L185.017163,54.9355 L185.017163,46.2595 L186.636597,46.2595 L186.636597,49.8955 Z" id="Fill-22" fill="#FFFFFF" mask="url(#mask-2)"></path>
                    <path d="M203.028504,46.7578 C203.064625,46.6968 203.10777,46.6378 203.158941,46.5768 C203.20911,46.5178 203.263292,46.4648 203.324497,46.4188 C203.383696,46.3728 203.449918,46.3348 203.51915,46.3048 C203.590389,46.2748 203.665642,46.2598 203.745911,46.2598 L204.961992,46.2598 L204.961992,54.9358 L203.336537,54.9358 L203.336537,49.4998 C203.336537,49.2958 203.341554,49.0828 203.350585,48.8608 C203.360618,48.6388 203.382692,48.4018 203.4148,48.1498 C203.334531,48.3688 203.248241,48.5738 203.155931,48.7648 C203.062618,48.9538 202.972315,49.1208 202.884019,49.2658 L199.554847,54.4378 C199.519729,54.4968 199.475581,54.5578 199.425413,54.6168 C199.375244,54.6778 199.321063,54.7308 199.259857,54.7768 C199.200659,54.8218 199.133433,54.8608 199.062194,54.8908 C198.989952,54.9208 198.914699,54.9358 198.838443,54.9358 L197.622362,54.9358 L197.622362,46.2598 L199.247817,46.2598 L199.247817,51.6958 C199.247817,51.8998 199.2428,52.1148 199.23076,52.3438 C199.217716,52.5708 199.196645,52.8118 199.163534,53.0638 C199.244807,52.8398 199.331096,52.6318 199.425413,52.4398 C199.520733,52.2468 199.614046,52.0768 199.705352,51.9298 L203.028504,46.7578 Z" id="Fill-23" fill="#FFFFFF" mask="url(#mask-2)"></path>
                    <polygon id="Fill-24" fill="#FFFFFF" mask="url(#mask-2)" points="216.617003 46.2598 216.617003 47.5438 212.75103 47.5438 212.75103 49.9488 215.798255 49.9488 215.798255 51.1918 212.75103 51.1918 212.75103 53.6458 216.617003 53.6458 216.617003 54.9358 211.125575 54.9358 211.125575 46.2598"></polygon>
                    <path d="M230.752337,53.6875 C230.844646,53.6715 230.935953,53.6395 231.025253,53.5915 C231.116559,53.5435 231.203852,53.4755 231.288135,53.3875 C231.372418,53.2995 231.45068,53.1835 231.522923,53.0395 L231.866074,52.3495 L228.374357,46.2595 L229.891448,46.2595 C230.031919,46.2595 230.144296,46.2935 230.228579,46.3615 C230.312862,46.4295 230.383098,46.5155 230.438283,46.6195 L232.130963,49.7995 C232.315582,50.1395 232.462074,50.4895 232.570438,50.8495 C232.622613,50.6695 232.682815,50.4935 232.751044,50.3215 C232.819273,50.1495 232.895529,49.9755 232.979811,49.7995 L234.453758,46.6195 C234.497906,46.5315 234.565131,46.4495 234.653428,46.3745 C234.741724,46.2975 234.854101,46.2595 234.990559,46.2595 L236.333064,46.2595 L232.817266,53.7295 C232.692848,53.9895 232.560404,54.2035 232.419933,54.3715 C232.278458,54.5395 232.127953,54.6715 231.965407,54.7675 C231.802862,54.8635 231.628276,54.9305 231.44165,54.9685 C231.255024,55.0065 231.055354,55.0255 230.84264,55.0255 C230.55367,55.0255 230.342963,54.9995 230.210519,54.9475 C230.078074,54.8955 230.011852,54.8195 230.011852,54.7195 L230.011852,53.7115 L230.480424,53.7115 C230.568721,53.7115 230.660027,53.7035 230.752337,53.6875" id="Fill-25" fill="#FFFFFF" mask="url(#mask-2)"></path>
                    <path d="M247.391172,52.8896 C247.479468,52.8896 247.557731,52.9236 247.62596,52.9916 L248.264101,53.6816 C247.911919,54.1176 247.476458,54.4516 246.960727,54.6836 C246.446,54.9156 245.825919,55.0316 245.103495,55.0316 C244.457327,55.0316 243.876377,54.9216 243.360646,54.7016 C242.844916,54.4816 242.404438,54.1756 242.039212,53.7836 C241.673987,53.3916 241.394047,52.9236 241.199394,52.3796 C241.004741,51.8356 240.907414,51.2416 240.907414,50.5976 C240.907414,49.9456 241.012768,49.3486 241.221468,48.8066 C241.430168,48.2646 241.724155,47.7976 242.102424,47.4056 C242.481697,47.0136 242.935219,46.7086 243.45998,46.4906 C243.985744,46.2726 244.5687,46.1626 245.205838,46.1626 C245.839966,46.1626 246.403859,46.2676 246.894505,46.4756 C247.386155,46.6836 247.804559,46.9546 248.149717,47.2916 L247.607899,48.0416 C247.576795,48.0896 247.535657,48.1316 247.484485,48.1676 C247.434316,48.2026 247.365084,48.2216 247.276788,48.2216 C247.216586,48.2216 247.154377,48.2036 247.090162,48.1706 C247.025946,48.1366 246.95571,48.0946 246.879455,48.0446 C246.803199,47.9936 246.714902,47.9396 246.615569,47.8796 C246.514229,47.8196 246.397838,47.7646 246.265394,47.7146 C246.132949,47.6646 245.979434,47.6226 245.804848,47.5886 C245.630263,47.5546 245.428586,47.5366 245.199818,47.5366 C244.810512,47.5366 244.454316,47.6066 244.131232,47.7436 C243.808148,47.8826 243.530215,48.0826 243.297434,48.3446 C243.064653,48.6066 242.884047,48.9266 242.755616,49.3046 C242.627185,49.6826 242.56297,50.1136 242.56297,50.5976 C242.56297,51.0856 242.632202,51.5196 242.77167,51.8996 C242.909131,52.2796 243.096761,52.5996 243.333556,52.8596 C243.57035,53.1186 243.849286,53.3186 244.170364,53.4566 C244.491441,53.5946 244.836599,53.6626 245.205838,53.6626 C245.426579,53.6626 245.626249,53.6516 245.804848,53.6276 C245.983448,53.6036 246.148,53.5656 246.298505,53.5136 C246.450013,53.4616 246.591488,53.3946 246.725939,53.3126 C246.860391,53.2306 246.993838,53.1296 247.126283,53.0096 C247.166418,52.9736 247.208559,52.9446 247.252707,52.9226 C247.296855,52.9006 247.34301,52.8896 247.391172,52.8896" id="Fill-26" fill="#FFFFFF" mask="url(#mask-2)"></path>
                    <path d="M260.624077,46.2598 L260.624077,54.9358 L258.992603,54.9358 L258.992603,47.5018 L256.614623,47.5018 C256.558434,48.5898 256.479168,49.5308 256.376825,50.3238 C256.274481,51.1178 256.151067,51.7948 256.006582,52.3528 C255.862098,52.9098 255.699552,53.3638 255.518946,53.7118 C255.33834,54.0598 255.139673,54.3308 254.922946,54.5248 C254.707222,54.7188 254.473438,54.8508 254.224603,54.9208 C253.975768,54.9898 253.714892,55.0258 253.441976,55.0258 C253.153007,55.0258 252.9423,54.9988 252.809855,54.9478 C252.677411,54.8958 252.611189,54.8198 252.611189,54.7198 L252.611189,53.7118 L253.075747,53.7118 C253.179094,53.7118 253.284448,53.6988 253.390805,53.6758 C253.497162,53.6518 253.603519,53.6008 253.709875,53.5228 C253.816232,53.4448 253.920582,53.3318 254.022926,53.1838 C254.125269,53.0348 254.223599,52.8368 254.317916,52.5868 C254.412232,52.3368 254.500529,52.0298 254.582805,51.6658 C254.665081,51.3018 254.73933,50.8638 254.805552,50.3518 C254.871774,49.8398 254.92997,49.2468 254.980138,48.5728 C255.030306,47.8988 255.067431,47.1278 255.091512,46.2598 L260.624077,46.2598 Z" id="Fill-27" fill="#FFFFFF" mask="url(#mask-2)"></path>
                    <path d="M268.113108,53.6875 C268.205418,53.6715 268.296725,53.6395 268.386024,53.5915 C268.477331,53.5435 268.564624,53.4755 268.648906,53.3875 C268.733189,53.2995 268.811452,53.1835 268.883694,53.0395 L269.226846,52.3495 L265.735129,46.2595 L267.25222,46.2595 C267.392691,46.2595 267.505068,46.2935 267.589351,46.3615 C267.673634,46.4295 267.743869,46.5155 267.799055,46.6195 L269.491735,49.7995 C269.676354,50.1395 269.822846,50.4895 269.931209,50.8495 C269.983385,50.6695 270.043587,50.4935 270.111815,50.3215 C270.180044,50.1495 270.2563,49.9755 270.340583,49.7995 L271.814529,46.6195 C271.858677,46.5315 271.925903,46.4495 272.014199,46.3745 C272.102496,46.2975 272.214873,46.2595 272.351331,46.2595 L273.693836,46.2595 L270.178038,53.7295 C270.05362,53.9895 269.921176,54.2035 269.780704,54.3715 C269.63923,54.5395 269.488725,54.6715 269.326179,54.7675 C269.163634,54.8635 268.989048,54.9305 268.802422,54.9685 C268.615795,55.0065 268.416125,55.0255 268.203411,55.0255 C267.914442,55.0255 267.703735,54.9995 267.57129,54.9475 C267.438846,54.8955 267.372624,54.8195 267.372624,54.7195 L267.372624,53.7115 L267.841196,53.7115 C267.929492,53.7115 268.020799,53.7035 268.113108,53.6875" id="Fill-28" fill="#FFFFFF" mask="url(#mask-2)"></path>
                    <polygon id="Fill-29" fill="#FFFFFF" mask="url(#mask-2)" points="284.144405 47.502 280.399839 47.502 280.399839 54.936 278.773381 54.936 278.773381 46.26 284.144405 46.26"></polygon>
                    <path d="M294.925684,46.7578 C294.961805,46.6968 295.004949,46.6378 295.056121,46.5768 C295.10629,46.5178 295.160471,46.4648 295.221677,46.4188 C295.280875,46.3728 295.347098,46.3348 295.41633,46.3048 C295.487569,46.2748 295.562822,46.2598 295.643091,46.2598 L296.859172,46.2598 L296.859172,54.9358 L295.233717,54.9358 L295.233717,49.4998 C295.233717,49.2958 295.238734,49.0828 295.247764,48.8608 C295.257798,48.6388 295.279872,48.4018 295.31198,48.1498 C295.23171,48.3688 295.145421,48.5738 295.053111,48.7648 C294.959798,48.9538 294.869495,49.1208 294.781199,49.2658 L291.452027,54.4378 C291.416909,54.4968 291.372761,54.5578 291.322593,54.6168 C291.272424,54.6778 291.218242,54.7308 291.157037,54.7768 C291.097838,54.8218 291.030613,54.8608 290.959374,54.8908 C290.887131,54.9208 290.811879,54.9358 290.735623,54.9358 L289.519542,54.9358 L289.519542,46.2598 L291.144997,46.2598 L291.144997,51.6958 C291.144997,51.8998 291.13998,52.1148 291.127939,52.3438 C291.114896,52.5708 291.093825,52.8118 291.060714,53.0638 C291.141987,52.8398 291.228276,52.6318 291.322593,52.4398 C291.417912,52.2468 291.511226,52.0768 291.602532,51.9298 L294.925684,46.7578 Z" id="Fill-30" fill="#FFFFFF" mask="url(#mask-2)"></path>
                </g>
            </g>
        </g>
    </g>
</svg>